<svg width="1137" height="1137" viewBox="0 0 1137 1137" fill="none"
    xmlns="http://www.w3.org/2000/svg">
    <circle cx="568.167" cy="568.167" r="568.167" fill="#C3E4F2" />
    <circle cx="568.167" cy="562.188" r="361.989" fill="#E8F1F5" />
    <g clip-path="url(#clip0_444_3)">
        <path
            d="M593.525 733.352L579.834 771.803C585.432 771.438 590.97 770.851 596.437 770.052V725.171L593.522 733.355L593.525 733.352Z"
            fill="#DBF5FF" />
        <path
            d="M773.922 564.47C773.922 449.716 680.896 356.69 566.142 356.69C451.389 356.69 358.363 449.716 358.363 564.47C358.363 679.223 446.962 767.754 557.891 772.088L544.942 766.643L581.346 664.397L597.319 671.113H630.689V702.208V762.023C713.84 734.872 773.919 656.686 773.919 564.467L773.922 564.47Z"
            fill="#C3E5F2" />
        <path d="M630.694 671.111H621.286L630.694 702.209V671.111Z" fill="#DBF5FF" />
        <path d="M630.694 671.111H621.286L630.694 702.209V671.111Z" fill="url(#paint0_linear_444_3)" />
        <path d="M621.286 671.111H597.324L602.242 673.179L621.286 671.111Z" fill="#DBF5FF" />
        <path d="M621.286 671.111H597.324L602.242 673.179L621.286 671.111Z"
            fill="url(#paint1_linear_444_3)" />
        <path
            d="M602.596 707.88L596.44 725.171V770.053C602.123 769.223 607.734 768.166 613.258 766.883L602.596 707.88V707.88Z"
            fill="#DBF5FF" />
        <path
            d="M613.294 677.828L602.595 707.877L613.257 766.88C619.169 765.509 624.985 763.886 630.692 762.022V702.206L621.285 671.111L602.241 673.179L613.294 677.828V677.828Z"
            fill="#DBF5FF" />
        <path
            d="M613.294 677.828L602.595 707.877L613.257 766.88C619.169 765.509 624.985 763.886 630.692 762.022V702.206L621.285 671.111L602.241 673.179L613.294 677.828V677.828Z"
            fill="url(#paint2_linear_444_3)" />
        <path d="M593.524 733.353L596.439 725.169L593.524 733.353Z" fill="#DBF5FF" />
        <path d="M593.524 733.353L596.439 725.169L593.524 733.353Z" fill="url(#paint3_linear_444_3)" />
        <path
            d="M580.452 666.911L596.437 671.712V671.112H597.321L581.347 664.396L544.944 766.642L557.892 772.087C559.685 772.158 561.484 772.206 563.291 772.229L580.455 666.911H580.452Z"
            fill="#DBF5FF" />
        <path d="M596.44 671.712L601.57 673.253L602.242 673.179L597.324 671.111H596.44V671.712Z"
            fill="#DBF5FF" />
        <path d="M596.44 671.712L601.57 673.253L602.242 673.179L597.324 671.111H596.44V671.712Z"
            fill="url(#paint4_linear_444_3)" />
        <path d="M596.44 671.712L601.57 673.253L602.242 673.179L597.324 671.111H596.44V671.712Z"
            fill="url(#paint5_linear_444_3)" />
        <path
            d="M602.241 673.18L601.57 673.253L604.521 674.14L602.969 706.83L602.595 707.88L613.294 677.828L602.241 673.18Z"
            fill="#DBF5FF" />
        <path
            d="M602.241 673.18L601.57 673.253L604.521 674.14L602.969 706.83L602.595 707.88L613.294 677.828L602.241 673.18Z"
            fill="url(#paint6_linear_444_3)" />
        <path
            d="M602.241 673.18L601.57 673.253L604.521 674.14L602.969 706.83L602.595 707.88L613.294 677.828L602.241 673.18Z"
            fill="url(#paint7_linear_444_3)" />
        <path d="M579.834 771.804L593.525 733.353L579.834 771.804Z" fill="#DBF5FF" />
        <path
            d="M596.438 673.811V671.712L580.453 666.911L563.29 772.228C564.239 772.242 565.19 772.248 566.142 772.248C570.742 772.248 575.306 772.098 579.833 771.803L593.523 733.352L596.438 725.168V673.811V673.811Z"
            fill="#DBF5FF" />
        <path
            d="M596.438 673.811V671.712L580.453 666.911L563.29 772.228C564.239 772.242 565.19 772.248 566.142 772.248C570.742 772.248 575.306 772.098 579.833 771.803L593.523 733.352L596.438 725.168V673.811V673.811Z"
            fill="url(#paint8_linear_444_3)" />
        <path d="M596.44 725.169L602.596 707.881L596.44 673.812V725.169Z" fill="#DBF5FF" />
        <path d="M596.44 725.169L602.596 707.881L596.44 673.812V725.169Z"
            fill="url(#paint9_linear_444_3)" />
        <path d="M596.44 725.169L602.596 707.881L596.44 673.812V725.169Z"
            fill="url(#paint10_linear_444_3)" />
        <path d="M601.57 673.253L596.44 671.712V673.811L601.57 673.253Z" fill="#DBF5FF" />
        <path d="M601.57 673.253L596.44 671.712V673.811L601.57 673.253Z"
            fill="url(#paint11_linear_444_3)" />
        <path d="M601.57 673.253L596.44 671.712V673.811L601.57 673.253Z"
            fill="url(#paint12_linear_444_3)" />
        <path
            d="M596.44 673.812L602.596 707.881L602.97 706.83L604.522 674.141L601.57 673.254L596.44 673.812Z"
            fill="#DBF5FF" />
        <path
            d="M596.44 673.812L602.596 707.881L602.97 706.83L604.522 674.141L601.57 673.254L596.44 673.812Z"
            fill="url(#paint13_linear_444_3)" />
        <path
            d="M596.44 673.812L602.596 707.881L602.97 706.83L604.522 674.141L601.57 673.254L596.44 673.812Z"
            fill="url(#paint14_linear_444_3)" />
        <path
            d="M593.523 733.353L579.832 771.805C585.429 771.439 590.967 770.853 596.435 770.054V725.172L593.52 733.356L593.523 733.353Z"
            fill="#E8F1F5" />
        <path
            d="M773.92 564.471C773.92 449.717 680.893 356.691 566.14 356.691C451.387 356.691 358.36 449.717 358.36 564.471C358.36 679.224 446.959 767.755 557.888 772.089L544.94 766.644L581.343 664.398L597.317 671.114H630.686V702.209V762.024C713.838 734.873 773.917 656.687 773.917 564.468L773.92 564.471Z"
            fill="#C3E4F2" />
        <path d="M630.692 671.112H621.284L630.692 702.21V671.112Z" fill="#E8F1F5" />
        <path d="M630.692 671.112H621.284L630.692 702.21V671.112Z" fill="url(#paint15_linear_444_3)" />
        <path d="M621.285 671.112H597.323L602.24 673.18L621.285 671.112Z" fill="#E8F1F5" />
        <path d="M621.285 671.112H597.323L602.24 673.18L621.285 671.112Z"
            fill="url(#paint16_linear_444_3)" />
        <path
            d="M602.594 707.882L596.438 725.173V770.054C602.121 769.224 607.733 768.168 613.256 766.884L602.594 707.882V707.882Z"
            fill="#E8F1F5" />
        <path
            d="M613.292 677.829L602.593 707.878L613.255 766.881C619.167 765.51 624.983 763.887 630.691 762.023V702.207L621.283 671.112L602.239 673.18L613.292 677.829V677.829Z"
            fill="#E8F1F5" />
        <path
            d="M613.292 677.829L602.593 707.878L613.255 766.881C619.167 765.51 624.983 763.887 630.691 762.023V702.207L621.283 671.112L602.239 673.18L613.292 677.829V677.829Z"
            fill="url(#paint17_linear_444_3)" />
        <path d="M593.523 733.354L596.438 725.17L593.523 733.354Z" fill="#E8F1F5" />
        <path d="M593.523 733.354L596.438 725.17L593.523 733.354Z" fill="url(#paint18_linear_444_3)" />
        <path
            d="M580.45 666.912L596.435 671.714V671.113H597.319L581.346 664.397L544.942 766.644L557.891 772.088C559.684 772.159 561.483 772.207 563.29 772.23L580.453 666.912H580.45Z"
            fill="#E8F1F5" />
        <path d="M596.438 671.713L601.569 673.254L602.24 673.18L597.322 671.112H596.438V671.713Z"
            fill="#E8F1F5" />
        <path d="M596.438 671.713L601.569 673.254L602.24 673.18L597.322 671.112H596.438V671.713Z"
            fill="url(#paint19_linear_444_3)" />
        <path d="M596.438 671.713L601.569 673.254L602.24 673.18L597.322 671.112H596.438V671.713Z"
            fill="url(#paint20_linear_444_3)" />
        <path
            d="M602.239 673.181L601.567 673.254L604.519 674.141L602.967 706.83L602.593 707.881L613.292 677.829L602.239 673.181Z"
            fill="#E8F1F5" />
        <path
            d="M602.239 673.181L601.567 673.254L604.519 674.141L602.967 706.83L602.593 707.881L613.292 677.829L602.239 673.181Z"
            fill="url(#paint21_linear_444_3)" />
        <path
            d="M602.239 673.181L601.567 673.254L604.519 674.141L602.967 706.83L602.593 707.881L613.292 677.829L602.239 673.181Z"
            fill="url(#paint22_linear_444_3)" />
        <path d="M579.832 771.805L593.523 733.354L579.832 771.805Z" fill="#E8F1F5" />
        <path
            d="M596.437 673.813V671.714L580.452 666.912L563.289 772.23C564.238 772.244 565.189 772.249 566.141 772.249C570.741 772.249 575.305 772.099 579.832 771.805L593.522 733.353L596.437 725.17V673.813V673.813Z"
            fill="#E8F1F5" />
        <path
            d="M596.437 673.813V671.714L580.452 666.912L563.289 772.23C564.238 772.244 565.189 772.249 566.141 772.249C570.741 772.249 575.305 772.099 579.832 771.805L593.522 733.353L596.437 725.17V673.813V673.813Z"
            fill="url(#paint23_linear_444_3)" />
        <path d="M596.438 725.17L602.594 707.882L596.438 673.812V725.17Z" fill="#E8F1F5" />
        <path d="M596.438 725.17L602.594 707.882L596.438 673.812V725.17Z"
            fill="url(#paint24_linear_444_3)" />
        <path d="M596.438 725.17L602.594 707.882L596.438 673.812V725.17Z"
            fill="url(#paint25_linear_444_3)" />
        <path d="M601.569 673.255L596.438 671.714V673.813L601.569 673.255Z" fill="#E8F1F5" />
        <path d="M601.569 673.255L596.438 671.714V673.813L601.569 673.255Z"
            fill="url(#paint26_linear_444_3)" />
        <path d="M601.569 673.255L596.438 671.714V673.813L601.569 673.255Z"
            fill="url(#paint27_linear_444_3)" />
        <path
            d="M596.438 673.813L602.594 707.882L602.968 706.832L604.52 674.142L601.569 673.255L596.438 673.813Z"
            fill="#E8F1F5" />
        <path
            d="M596.438 673.813L602.594 707.882L602.968 706.832L604.52 674.142L601.569 673.255L596.438 673.813Z"
            fill="url(#paint28_linear_444_3)" />
        <path
            d="M596.438 673.813L602.594 707.882L602.968 706.832L604.52 674.142L601.569 673.255L596.438 673.813Z"
            fill="url(#paint29_linear_444_3)" />
        <path
            d="M533.709 281.339C533.709 281.339 557.788 273.691 556.938 246.497C556.938 246.497 568.269 274.258 550.139 288.705L533.709 281.339Z"
            fill="#B61C0C" />
        <path
            d="M543.301 288.098C543.301 288.098 568.459 290.41 578.246 265.023C578.246 265.023 577.897 295.004 555.578 301.27L543.301 288.098Z"
            fill="#B61C0C" />
        <path
            d="M515.583 271.986C515.583 271.986 540.489 276.226 552.199 251.669C552.199 251.669 549.542 281.535 526.807 286.064L515.581 271.986H515.583Z"
            fill="#B61C0C" />
        <mask id="mask0_444_3" style="mask-type:luminance" maskUnits="userSpaceOnUse" x="396"
            y="270" width="342" height="499">
            <path
                d="M472.08 355.251C477.892 363.553 485.983 370.145 495.444 374.119L495.421 374.111C493.334 423.573 396.857 408.914 396.857 507.58C396.857 532.301 405.559 554.988 420.068 572.747C425.212 579.044 431.087 584.72 437.563 589.649L449.307 597.386L708.586 768.161C726.678 740.693 737.208 707.799 737.208 672.447C737.208 615.002 709.41 564.053 666.531 532.312C620.013 497.878 577.199 494.348 521.873 503.087C519.885 503.402 517.845 503.566 515.769 503.566C494.215 503.566 476.96 486.068 476.96 464.758C476.96 412.576 572.369 431.717 572.369 336.643C572.369 319.706 566.406 270.346 516.33 270.346C501.764 270.346 487.912 276.184 477.745 286.574C468.222 296.308 462.349 309.63 462.349 324.326C462.349 335.83 465.947 346.489 472.08 355.248"
                fill="white" />
        </mask>
        <g mask="url(#mask0_444_3)">
            <path d="M737.206 270.352H396.855V768.164H737.206V270.352Z"
                fill="url(#paint30_linear_444_3)" />
        </g>
        <mask id="mask1_444_3" style="mask-type:luminance" maskUnits="userSpaceOnUse" x="462"
            y="270" width="111" height="157">
            <path
                d="M472.078 355.25C477.89 363.553 485.981 370.145 495.442 374.119L495.419 374.111L502.552 398.922L507.549 426.139C535.454 410.732 572.37 395.784 572.37 336.645C572.37 319.708 566.407 270.348 516.33 270.348C501.764 270.348 487.913 276.186 477.746 286.577C468.222 296.31 462.35 309.632 462.35 324.328C462.35 335.832 465.948 346.492 472.08 355.25"
                fill="white" />
        </mask>
        <g mask="url(#mask1_444_3)">
            <path d="M572.37 270.348H462.35V426.139H572.37V270.348Z"
                fill="url(#paint31_linear_444_3)" />
        </g>
        <path fill-rule="evenodd" clip-rule="evenodd"
            d="M548.864 399.342C562.379 386.209 572.37 367.408 572.37 336.645C572.37 319.708 566.407 270.348 516.33 270.348C501.764 270.348 487.913 276.186 477.746 286.577C468.222 296.31 462.35 309.632 462.35 324.328C462.35 328.909 462.922 333.353 463.993 337.6C464.021 337.583 547.275 281.829 548.864 399.339"
            fill="#51F4E9" />
        <mask id="mask2_444_3" style="mask-type:luminance" maskUnits="userSpaceOnUse" x="467"
            y="497" width="294" height="308">
            <path
                d="M642.299 720.665L721.964 804.284C746.011 772.235 760.259 732.41 760.259 689.256C760.259 606.235 707.523 535.53 633.722 508.812C613.335 501.433 591.342 497.408 568.411 497.408C538.458 497.408 510.108 504.271 484.851 516.512C456.371 530.313 466.229 535.856 485.013 555.572L642.302 720.668L642.299 720.665Z"
                fill="white" />
        </mask>
        <g mask="url(#mask2_444_3)">
            <path d="M760.254 497.408H456.366V804.284H760.254V497.408Z"
                fill="url(#paint32_linear_444_3)" />
        </g>
        <path fill-rule="evenodd" clip-rule="evenodd"
            d="M642.298 720.665L721.962 804.284C733.027 789.54 742.012 773.147 748.494 755.545L470.383 539.87C473.581 544.097 478.808 549.059 485.009 555.569L642.298 720.665V720.665Z"
            fill="#3E005D" />
        <mask id="mask3_444_3" style="mask-type:luminance" maskUnits="userSpaceOnUse" x="396"
            y="374" width="123" height="231">
            <path
                d="M460.599 604.821C395.562 483.836 500.863 429.978 500.863 429.978C503.013 428.677 505.251 427.405 507.548 426.136C533.116 393.855 507.466 379.187 498.359 375.244C496.719 374.533 495.617 374.17 495.444 374.116L495.421 374.108C493.334 423.57 396.857 408.911 396.857 507.577C396.857 532.298 405.559 554.985 420.068 572.744C425.212 579.041 431.087 584.717 437.563 589.646L449.307 597.383L460.599 604.818V604.821Z"
                fill="white" />
        </mask>
        <g mask="url(#mask3_444_3)">
            <path d="M533.116 374.11H395.562V604.82H533.116V374.11Z"
                fill="url(#paint33_linear_444_3)" />
        </g>
        <path fill-rule="evenodd" clip-rule="evenodd"
            d="M444.92 567.184C417.542 472.602 500.863 429.981 500.863 429.981C500.863 429.981 408.791 470.82 444.897 567.127L444.92 567.184V567.184Z"
            fill="#FFCE4B" />
        <path fill-rule="evenodd" clip-rule="evenodd"
            d="M462.76 412.378C434.059 428.74 396.857 446.308 396.857 507.58C396.857 527.018 402.239 545.195 411.59 560.713C378.541 460.962 462.76 412.381 462.76 412.381V412.378Z"
            fill="#FFBBD7" />
        <path fill-rule="evenodd" clip-rule="evenodd"
            d="M478.125 286.194C484.23 284.854 556.934 270.306 569.336 334.597C570.474 340.5 571.106 347.067 571.129 354.372C571.939 348.945 572.372 343.053 572.372 336.642C572.372 330.232 571.588 320.11 568.208 309.349C567.367 306.672 566.364 303.972 565.174 301.313C557.942 285.143 543.748 270.348 516.333 270.348C504.973 270.348 494.048 273.9 484.963 280.393C482.722 281.996 480.606 283.767 478.641 285.687C478.468 285.854 478.298 286.024 478.125 286.194"
            fill="#5EF9F6" />
        <path fill-rule="evenodd" clip-rule="evenodd"
            d="M460.597 604.822C460.597 604.822 432.145 528.18 490.638 494.335C482.253 487.196 476.961 476.562 476.961 464.761C476.961 447.711 487.148 438.275 500.864 429.981C500.864 429.981 395.563 483.839 460.6 604.825"
            fill="#102770" />
        <path fill-rule="evenodd" clip-rule="evenodd"
            d="M472.021 541.902C487.828 566.957 538.245 648.826 518.277 642.812L652.106 730.96L642.299 720.666L485.009 555.57C479.775 550.074 475.231 545.681 472.019 541.902"
            fill="url(#paint34_linear_444_3)" />
        <path fill-rule="evenodd" clip-rule="evenodd"
            d="M620.912 516.165C699.659 544.673 755.931 620.117 755.931 708.705C755.931 719.132 755.152 729.375 753.648 739.383C757.962 723.404 760.262 706.597 760.262 689.252C760.262 606.231 707.525 535.527 633.725 508.808C613.337 501.429 591.344 497.404 568.413 497.404C542.817 497.404 518.393 502.418 496.066 511.514C513.615 506.616 532.112 503.998 551.222 503.998C575.691 503.998 599.16 508.293 620.912 516.168"
            fill="#FCE2A6" />
        <path fill-rule="evenodd" clip-rule="evenodd"
            d="M498.359 375.247C507.466 379.19 533.117 393.858 507.549 426.14C510.424 424.551 513.395 422.97 516.412 421.344C532.655 393.702 512.384 380.87 501.492 376.247C498.164 374.834 495.711 374.188 495.444 374.123C495.617 374.176 496.722 374.539 498.359 375.25"
            fill="#1296DF" />
        <path fill-rule="evenodd" clip-rule="evenodd"
            d="M503.295 402.962C507.884 412.316 507.549 426.139 507.549 426.139C533.117 393.858 507.467 379.19 498.36 375.247C496.72 374.536 495.618 374.173 495.445 374.119L495.422 374.111C495.048 382.963 491.652 389.762 486.324 395.523C495.116 392.58 500.272 396.801 503.295 402.962"
            fill="#102770" />
        <path fill-rule="evenodd" clip-rule="evenodd"
            d="M642.299 720.666L652.103 730.954L474.973 535.372C474.973 535.372 466.979 527.141 483.627 517.11C456.66 530.477 466.501 536.143 485.009 555.57L642.299 720.666Z"
            fill="#FCE2A6" />
        <path
            d="M477.751 286.457V286.287H477.716C477.723 286.347 477.729 286.41 477.735 286.47L477.751 286.457V286.457Z"
            fill="url(#paint35_linear_444_3)" />
        <path
            d="M477.747 286.58V286.951C478.05 286.625 478.356 286.296 478.668 285.979C478.659 285.883 478.648 285.786 478.639 285.687L477.747 286.441V286.577V286.58Z"
            fill="#FCE2A6" />
        <path
            d="M464.175 310.368L464.92 309.781L465.112 309.705C467.43 301.074 471.832 293.301 477.746 286.953V286.582C471.35 293.117 466.608 301.272 464.178 310.371L464.175 310.368Z"
            fill="#FCE2A6" />
        <path
            d="M477.749 286.594V286.443L477.733 286.455C477.74 286.503 477.743 286.55 477.749 286.594Z"
            fill="#FCE2A6" />
        <path
            d="M312.285 430.128C329.44 429.533 384.873 421.874 472.078 355.248C465.945 346.489 462.348 335.827 462.348 324.326C462.348 319.496 462.985 314.82 464.175 310.364L312.285 430.128Z"
            fill="url(#paint36_linear_444_3)" />
        <path
            d="M477.733 286.451C477.727 286.398 477.721 286.341 477.716 286.287L307.447 430.113C307.509 430.115 307.577 430.118 307.645 430.124L477.733 286.451Z"
            fill="url(#paint37_linear_444_3)" />
        <path
            d="M312.285 430.131L464.175 310.369C466.605 301.271 471.35 293.115 477.743 286.58C477.738 286.538 477.735 286.495 477.729 286.453L307.645 430.125C308.579 430.17 310.129 430.207 312.285 430.131Z"
            fill="#FCE2A6" />
    </g>
    <defs>
        <linearGradient id="paint0_linear_444_3" x1="631.235" y1="717.259" x2="645.22" y2="840.275"
            gradientUnits="userSpaceOnUse">
            <stop stop-color="#0067AF" />
            <stop offset="1" stop-color="#3AB6A8" />
        </linearGradient>
        <linearGradient id="paint1_linear_444_3" x1="614.762" y1="719.132" x2="628.748" y2="842.149"
            gradientUnits="userSpaceOnUse">
            <stop stop-color="#0067AF" />
            <stop offset="1" stop-color="#3AB6A8" />
        </linearGradient>
        <linearGradient id="paint2_linear_444_3" x1="618.2" y1="718.741" x2="632.185" y2="841.757"
            gradientUnits="userSpaceOnUse">
            <stop stop-color="#0067AF" />
            <stop offset="1" stop-color="#3AB6A8" />
        </linearGradient>
        <linearGradient id="paint3_linear_444_3" x1="615.403" y1="667.101" x2="563.943" y2="824.009"
            gradientUnits="userSpaceOnUse">
            <stop stop-color="#0067AF" />
            <stop offset="1" stop-color="#3AB6A8" />
        </linearGradient>
        <linearGradient id="paint4_linear_444_3" x1="604.777" y1="720.268" x2="618.762" y2="843.285"
            gradientUnits="userSpaceOnUse">
            <stop stop-color="#0067AF" />
            <stop offset="1" stop-color="#3AB6A8" />
        </linearGradient>
        <linearGradient id="paint5_linear_444_3" x1="602.424" y1="662.844" x2="550.962" y2="819.753"
            gradientUnits="userSpaceOnUse">
            <stop stop-color="#0067AF" />
            <stop offset="1" stop-color="#3AB6A8" />
        </linearGradient>
        <linearGradient id="paint6_linear_444_3" x1="610.98" y1="719.563" x2="624.965" y2="842.579"
            gradientUnits="userSpaceOnUse">
            <stop stop-color="#0067AF" />
            <stop offset="1" stop-color="#3AB6A8" />
        </linearGradient>
        <linearGradient id="paint7_linear_444_3" x1="610.732" y1="665.57" x2="559.274" y2="822.479"
            gradientUnits="userSpaceOnUse">
            <stop stop-color="#0067AF" />
            <stop offset="1" stop-color="#3AB6A8" />
        </linearGradient>
        <linearGradient id="paint8_linear_444_3" x1="599.661" y1="661.94" x2="548.204" y2="818.847"
            gradientUnits="userSpaceOnUse">
            <stop stop-color="#0067AF" />
            <stop offset="1" stop-color="#3AB6A8" />
        </linearGradient>
        <linearGradient id="paint9_linear_444_3" x1="600.004" y1="720.812" x2="613.989" y2="843.826"
            gradientUnits="userSpaceOnUse">
            <stop stop-color="#0067AF" />
            <stop offset="1" stop-color="#3AB6A8" />
        </linearGradient>
        <linearGradient id="paint10_linear_444_3" x1="608.121" y1="664.714" x2="556.661" y2="821.62"
            gradientUnits="userSpaceOnUse">
            <stop stop-color="#0067AF" />
            <stop offset="1" stop-color="#3AB6A8" />
        </linearGradient>
        <linearGradient id="paint11_linear_444_3" x1="604.324" y1="720.319" x2="618.309"
            y2="843.336" gradientUnits="userSpaceOnUse">
            <stop stop-color="#0067AF" />
            <stop offset="1" stop-color="#3AB6A8" />
        </linearGradient>
        <linearGradient id="paint12_linear_444_3" x1="602.219" y1="662.777" x2="550.76" y2="819.687"
            gradientUnits="userSpaceOnUse">
            <stop stop-color="#0067AF" />
            <stop offset="1" stop-color="#3AB6A8" />
        </linearGradient>
        <linearGradient id="paint13_linear_444_3" x1="605.732" y1="720.161" x2="619.717"
            y2="843.177" gradientUnits="userSpaceOnUse">
            <stop stop-color="#0067AF" />
            <stop offset="1" stop-color="#3AB6A8" />
        </linearGradient>
        <linearGradient id="paint14_linear_444_3" x1="608.133" y1="664.716" x2="556.674"
            y2="821.626" gradientUnits="userSpaceOnUse">
            <stop stop-color="#0067AF" />
            <stop offset="1" stop-color="#3AB6A8" />
        </linearGradient>
        <linearGradient id="paint15_linear_444_3" x1="631.233" y1="717.26" x2="645.218" y2="840.276"
            gradientUnits="userSpaceOnUse">
            <stop stop-color="#0067AF" />
            <stop offset="1" stop-color="#3AB6A8" />
        </linearGradient>
        <linearGradient id="paint16_linear_444_3" x1="614.761" y1="719.133" x2="628.746" y2="842.15"
            gradientUnits="userSpaceOnUse">
            <stop stop-color="#0067AF" />
            <stop offset="1" stop-color="#3AB6A8" />
        </linearGradient>
        <linearGradient id="paint17_linear_444_3" x1="618.198" y1="718.742" x2="632.183"
            y2="841.758" gradientUnits="userSpaceOnUse">
            <stop stop-color="#0067AF" />
            <stop offset="1" stop-color="#3AB6A8" />
        </linearGradient>
        <linearGradient id="paint18_linear_444_3" x1="615.402" y1="667.103" x2="563.942"
            y2="824.011" gradientUnits="userSpaceOnUse">
            <stop stop-color="#0067AF" />
            <stop offset="1" stop-color="#3AB6A8" />
        </linearGradient>
        <linearGradient id="paint19_linear_444_3" x1="604.775" y1="720.269" x2="618.76" y2="843.286"
            gradientUnits="userSpaceOnUse">
            <stop stop-color="#0067AF" />
            <stop offset="1" stop-color="#3AB6A8" />
        </linearGradient>
        <linearGradient id="paint20_linear_444_3" x1="602.422" y1="662.845" x2="550.96" y2="819.754"
            gradientUnits="userSpaceOnUse">
            <stop stop-color="#0067AF" />
            <stop offset="1" stop-color="#3AB6A8" />
        </linearGradient>
        <linearGradient id="paint21_linear_444_3" x1="610.978" y1="719.564" x2="624.963" y2="842.58"
            gradientUnits="userSpaceOnUse">
            <stop stop-color="#0067AF" />
            <stop offset="1" stop-color="#3AB6A8" />
        </linearGradient>
        <linearGradient id="paint22_linear_444_3" x1="610.73" y1="665.571" x2="559.272" y2="822.48"
            gradientUnits="userSpaceOnUse">
            <stop stop-color="#0067AF" />
            <stop offset="1" stop-color="#3AB6A8" />
        </linearGradient>
        <linearGradient id="paint23_linear_444_3" x1="599.66" y1="661.941" x2="548.203" y2="818.848"
            gradientUnits="userSpaceOnUse">
            <stop stop-color="#0067AF" />
            <stop offset="1" stop-color="#3AB6A8" />
        </linearGradient>
        <linearGradient id="paint24_linear_444_3" x1="600.002" y1="720.813" x2="613.987"
            y2="843.826" gradientUnits="userSpaceOnUse">
            <stop stop-color="#0067AF" />
            <stop offset="1" stop-color="#3AB6A8" />
        </linearGradient>
        <linearGradient id="paint25_linear_444_3" x1="608.119" y1="664.715" x2="556.659"
            y2="821.621" gradientUnits="userSpaceOnUse">
            <stop stop-color="#0067AF" />
            <stop offset="1" stop-color="#3AB6A8" />
        </linearGradient>
        <linearGradient id="paint26_linear_444_3" x1="604.322" y1="720.321" x2="618.307"
            y2="843.338" gradientUnits="userSpaceOnUse">
            <stop stop-color="#0067AF" />
            <stop offset="1" stop-color="#3AB6A8" />
        </linearGradient>
        <linearGradient id="paint27_linear_444_3" x1="602.217" y1="662.779" x2="550.758"
            y2="819.689" gradientUnits="userSpaceOnUse">
            <stop stop-color="#0067AF" />
            <stop offset="1" stop-color="#3AB6A8" />
        </linearGradient>
        <linearGradient id="paint28_linear_444_3" x1="605.73" y1="720.162" x2="619.715" y2="843.179"
            gradientUnits="userSpaceOnUse">
            <stop stop-color="#0067AF" />
            <stop offset="1" stop-color="#3AB6A8" />
        </linearGradient>
        <linearGradient id="paint29_linear_444_3" x1="608.131" y1="664.718" x2="556.672"
            y2="821.627" gradientUnits="userSpaceOnUse">
            <stop stop-color="#0067AF" />
            <stop offset="1" stop-color="#3AB6A8" />
        </linearGradient>
        <linearGradient id="paint30_linear_444_3" x1="486.287" y1="597.408" x2="578.988"
            y2="507.688" gradientUnits="userSpaceOnUse">
            <stop stop-color="#15FF86" />
            <stop offset="1" stop-color="#1887C8" />
        </linearGradient>
        <linearGradient id="paint31_linear_444_3" x1="496.504" y1="405.497" x2="547.176"
            y2="266.385" gradientUnits="userSpaceOnUse">
            <stop stop-color="#0067AF" />
            <stop offset="1" stop-color="#51F4E9" />
        </linearGradient>
        <linearGradient id="paint32_linear_444_3" x1="579.515" y1="463.475" x2="628.263"
            y2="780.668" gradientUnits="userSpaceOnUse">
            <stop stop-color="#FFCE4B" />
            <stop offset="1" stop-color="#BC25C1" />
        </linearGradient>
        <linearGradient id="paint33_linear_444_3" x1="481.737" y1="497.112" x2="413.975"
            y2="467.326" gradientUnits="userSpaceOnUse">
            <stop stop-color="#003780" />
            <stop offset="1" stop-color="#C13FF9" />
        </linearGradient>
        <linearGradient id="paint34_linear_444_3" x1="472.021" y1="636.432" x2="652.106"
            y2="636.432" gradientUnits="userSpaceOnUse">
            <stop offset="0.07" stop-color="#188FC4" />
            <stop offset="1" stop-color="#15FF86" />
        </linearGradient>
        <linearGradient id="paint35_linear_444_3" x1="180.081" y1="440.938" x2="519.726"
            y2="264.618" gradientUnits="userSpaceOnUse">
            <stop stop-color="#FFCE4B" />
            <stop offset="1" stop-color="#B91C58" />
        </linearGradient>
        <linearGradient id="paint36_linear_444_3" x1="228.992" y1="461.597" x2="534.313"
            y2="303.072" gradientUnits="userSpaceOnUse">
            <stop stop-color="#FFCE4B" />
            <stop offset="1" stop-color="#B91C58" />
        </linearGradient>
        <linearGradient id="paint37_linear_444_3" x1="221.465" y1="447.1" x2="526.787" y2="288.579"
            gradientUnits="userSpaceOnUse">
            <stop stop-color="#FFCE4B" />
            <stop offset="1" stop-color="#B91C58" />
        </linearGradient>
        <clipPath id="clip0_444_3">
            <rect width="466.475" height="557.787" fill="white"
                transform="translate(307.448 246.496)" />
        </clipPath>
    </defs>
</svg>
    