<svg width="796" height="1080" viewBox="0 0 796 1080" fill="none" xmlns="http://www.w3.org/2000/svg">
    <g clip-path="url(#clip0_438_22107)">
        <path
            d="M409.111 704.425C413.264 707.256 426.664 737.53 426.664 737.53C427.25 732.093 416.143 706.582 416.143 706.582C416.143 706.582 422.978 708.657 427.781 713.904C432.601 719.143 441.046 754.81 441.046 754.81C442.162 751.834 440.244 734.146 440.244 734.146C442.075 738.614 444.7 763.73 444.7 763.73C451.163 749.499 438.689 713.591 437.955 711.511C438.732 713.408 450.474 728.485 459.087 738.354C467.838 748.367 469.791 771.403 469.791 771.403C471.398 768.409 469.176 747.155 470.156 749.937C471.119 752.726 478.969 756.056 480.067 759.132C481.168 762.207 483.816 783.284 483.816 783.284C484.892 779.822 483.573 765.25 483.573 765.25C484.383 767.617 488.664 789.858 488.664 789.858C490.436 784.438 484.908 759.16 484.908 759.16C487.217 761.578 490.117 761.742 495.647 770.376C501.028 778.791 500.01 799.151 499.946 800.305C502.558 793.675 501.072 779.576 501.072 779.576C502.983 785.845 515.497 794.479 517.168 798.168C518.856 801.849 515.564 822.657 515.564 822.657C518.27 816.694 518.972 802.968 518.972 802.968C521.826 806.674 520.783 828.92 520.783 828.92C523.489 824.95 522.954 801.337 522.954 801.337C525.717 807.256 537.368 818.258 537.368 818.258C538.572 821.976 533.933 845.193 533.933 845.193C535.796 842.436 540.263 822.453 540.263 822.453C542.166 826.711 537.743 846.995 537.743 846.995C540.618 844.468 544.745 824.485 544.745 824.485C545.082 826.523 548.683 831.031 548.683 831.031C549.233 840.314 544.341 855.797 544.341 855.797C541.056 864.194 546.108 860.111 546.108 860.111C552.939 848.729 550.528 831.686 550.528 831.686C551.942 835.138 564.936 846.596 564.936 846.596C576.648 855.559 569.636 870.057 569.282 870.745C575.535 863.309 574.048 854.61 574.048 854.61C578.169 860.921 575.898 882.802 575.76 884.07C579.089 875.734 579.543 861.345 579.543 861.345C585.789 872.305 580.489 898.149 580.489 898.149C587.435 886.66 585.275 872.273 585.275 872.273C588.666 882.79 595.76 888.125 595.76 888.125C590.152 900.979 590.595 909.662 590.646 910.326C590.941 908.614 592.115 907.528 594.452 903.006C596.828 898.427 598.926 888.742 598.926 888.742C601.319 892.979 600.538 896.14 600.538 896.14C594.865 906.986 594.18 920.805 594.086 924.089C594.432 917.138 604.378 898.013 604.378 898.013C605.258 903.617 615.853 908.343 614.707 908.812C613.561 909.282 611.117 915.099 605.241 928.768C601.737 936.906 602.067 940.196 601.094 943.184L654.899 1004.5C653.775 1003.79 648.483 1006.29 648.483 1006.29C648.483 1006.29 638.018 992.11 633.777 986.628C630.312 982.15 607.691 955.79 599.524 946.29C599.52 946.295 599.517 946.302 599.513 946.307C569.03 910.52 435.746 755.247 364.818 692.328C370.3 692.459 376.337 694.681 376.337 694.681C376.337 694.681 404.951 701.596 409.104 704.428L409.111 704.425Z"
            fill="#ADDAED" />
        <path
            d="M396.219 781.147C410.639 787.751 415.136 781.879 415.136 781.879C406.334 783.771 396.376 776.225 395.764 775.752C403.598 779.775 409.933 774.44 409.933 774.44C391.096 777.018 377.727 755.638 376.918 754.298C383.031 761.181 393.182 757.126 393.182 757.126C382.035 757.481 370.466 736.796 370.466 736.796C373.605 739.78 380.959 737.615 380.959 737.615C368.574 733.783 366.569 727.231 357.849 705.943C353.397 695.075 358.335 692.367 364.201 692.32C386.007 715.985 538.504 881.583 596.365 949.713C596.152 949.921 595.923 950.095 595.729 950.254C592.68 952.752 588.258 954.965 577.244 956.86C575.195 957.215 570.088 956.688 553.8 958.184C549.432 958.482 545.219 959.643 542.797 959.77C542.797 959.77 541.663 959.045 551.112 953.666C560.545 948.29 578.038 951.199 578.038 951.199C561.318 941.267 546.899 953.558 546.899 953.558C546.508 949.344 531.49 932.992 531.49 932.992C535.722 936.113 549.282 929.957 553.328 927.995C541.792 933.346 525.424 926.613 524.434 926.191C534.11 929.743 546.719 923.651 546.719 923.651C528.646 928.878 513.695 916.104 513.695 916.104C526.5 921.013 535.887 913.48 535.887 913.48C512.408 922.513 499.554 896.631 499.554 896.631C507.159 901.415 520.39 896.84 520.39 896.84C488.293 897.639 490.896 884.22 489.237 880.752C487.601 877.391 477.983 869.646 477.388 869.166C486.894 874.299 501.47 868.329 501.47 868.329C479.326 872.725 466.088 858.969 466.088 858.969C467.631 860.109 473.584 857.59 473.584 857.59C463.377 859.657 457.296 849.052 457.296 849.052C463.888 852.576 476.659 847.85 476.659 847.85C453.686 852.223 441.306 833.783 441.306 833.783C446.354 836.511 451.455 834.785 451.455 834.785C441.216 835.069 424.4 817.156 424.4 817.156C433.903 823.599 445.391 817.886 445.391 817.886C435.622 821.123 418.484 810.653 420.483 811.588C422.499 812.516 427.501 807.969 427.501 807.969C416.183 812.343 408.352 795.666 408.352 795.666C412.489 798.746 424.528 793.652 424.528 793.652C406.841 797.534 396.221 781.152 396.221 781.152L396.219 781.147Z"
            fill="#ADDAED" />
        <path
            d="M364.825 692.325C364.625 692.327 364.427 692.325 364.203 692.317C362.694 690.679 361.802 689.716 361.624 689.526C362.678 690.444 363.732 691.361 364.825 692.325Z"
            fill="#ADDAED" />
        <path
            d="M723.281 1086.5C727.363 1080.47 728.634 1076.21 728.763 1075.76C727.914 1077.28 726.435 1077.9 722.706 1081.38C721.341 1082.66 719.781 1084.57 718.351 1086.5H714.313C714.515 1086.04 714.673 1085.8 714.673 1085.8C723.666 1077.49 728.967 1064.7 730.149 1061.64C727.489 1068.07 711.683 1082.75 711.683 1082.75C712.736 1077.17 704.351 1069.17 705.59 1069.12C706.826 1069.04 711.093 1064.4 721.23 1053.49C727.268 1047.01 728.062 1043.8 729.982 1041.3L711.257 994.005L701.175 968.554L700.125 965.909L699.958 965.48C700.032 965.592 700.16 965.666 700.327 965.74C700.843 965.983 701.748 966.076 702.728 966.095C704.556 966.15 706.605 965.945 706.605 965.945C706.605 965.945 711.683 982.818 713.824 989.417C714.01 989.996 714.343 990.909 714.766 992.084C715.265 993.483 715.912 995.234 716.651 997.248C716.76 997.489 716.853 997.732 716.946 997.994C721.396 1009.94 729.15 1030.17 732.512 1038.9C736.179 1048.56 742.569 1065.33 750.814 1086.5H723.281Z"
            fill="#ADDAED" />
        <path
            d="M774.612 1077.97C783.296 1078.5 790.052 1082.43 794.805 1086.5H756.107C748.489 1067.48 741.808 1050.45 736.629 1036.75C736.907 1036.62 737.183 1036.53 737.423 1036.45C741.136 1035.11 746.028 1034.52 757.051 1036.43C759.1 1036.79 763.736 1039.01 779.561 1043.06C783.79 1044.25 788.147 1044.56 790.456 1045.27C790.456 1045.27 791.288 1046.33 780.576 1048.22C769.886 1050.12 754.394 1041.51 754.394 1041.51C766.803 1056.48 784.51 1049.75 784.51 1049.75C783.468 1053.79 791.94 1073.91 792.096 1074.28C789.149 1069.92 774.314 1071.17 769.848 1071.65C782.148 1070.53 794.887 1081.65 796.346 1082.97C788.407 1076.48 774.612 1077.97 774.612 1077.97Z"
            fill="#ADDAED" />
        <path
            d="M436.582 -6.5C429.698 2.30138 427.245 14.2151 427.245 14.2151C427.079 10.5043 418.694 -4.65283 418.694 -4.65283C418.293 -5.27311 417.938 -5.88792 417.633 -6.5L436.582 -6.5Z"
            fill="#ADDAED" />
        <path
            d="M555.206 207.862H555.204C550.072 205.886 545.144 201.768 545.144 201.768C545.144 201.768 520.531 185.66 517.576 181.597C514.621 177.531 512.184 144.514 512.184 144.514C509.802 149.436 511.685 177.198 511.685 177.198C511.685 177.198 505.944 172.946 503.191 166.402C500.403 159.838 504.466 123.411 504.466 123.411C502.416 125.835 498.261 143.134 498.261 143.134C498.043 138.363 503.931 114.145 504.021 113.776C493.148 125.023 492.815 163.027 492.796 165.227C492.703 163.177 486.72 145.036 481.939 132.844C477.176 120.763 482.733 99.1166 482.974 98.1657C480.425 100.589 475.402 121.154 475.421 118.228C475.438 115.282 469.179 109.503 469.179 106.24C469.179 102.978 473.776 82.227 473.776 82.227C471.599 85.1152 467.943 99.286 467.943 99.286C467.959 96.7885 471.432 74.3957 471.432 74.3957C467.943 78.907 464.619 104.582 464.619 104.582C463.269 101.524 460.592 100.404 458.284 90.4108C456.049 80.6804 463.861 61.8316 464.322 60.7687C459.632 66.138 456.273 79.9153 456.273 79.9153C456.587 73.371 447.703 61.0283 447.37 57.0033C447.056 53.1068 456.529 35.5805 457.102 34.5176C452.54 39.2721 447.296 51.8744 447.296 51.8744C445.869 47.4532 454.21 27.1125 454.33 26.8201C450.434 29.6619 442.996 52.0629 442.996 52.0629C442.385 45.5732 435.13 31.2932 435.13 31.2932C435.239 27.4076 447.236 7.39203 447.425 7.07779C444.723 9.06159 433.799 26.372 433.799 26.372C433.452 21.7459 444.265 4.36169 444.431 4.0939C440.885 5.51753 430.274 22.94 430.274 22.94C430.642 20.9097 428.759 15.4638 428.759 15.4638C431.362 6.53402 441.185 -6.40436 441.185 -6.40436C441.212 -6.43715 441.242 -6.46994 441.267 -6.5H460.139C489.385 66.5752 527.417 157.251 555.206 207.862Z"
            fill="#ADDAED" />
        <path
            d="M555.782 208.07C547.166 187.759 503.074 83.7599 466.057 -6.5H503.238C505.303 -2.12527 508.463 3.04462 508.733 3.49549C501.511 -4.5408 485.778 -3.81395 485.778 -3.81395C507.947 -0.537685 515.829 16.6115 515.95 16.8793C514.872 15.2972 508.416 15.6688 508.416 15.6688C518.741 17.1607 520.883 29.1865 520.883 29.1865C515.859 23.6477 502.25 23.8171 502.25 23.8171C525.349 27.4158 530.798 48.9288 530.798 48.9288C526.975 44.6797 521.584 44.5868 521.584 44.5868C531.019 47.6609 540.511 68.8979 541.081 70.2204C534.287 61.0119 521.603 62.5394 521.603 62.5394C531.886 62.7634 544.516 78.3851 542.947 76.8385C541.36 75.2919 535.12 77.8823 535.12 77.8823C547.25 77.5654 549.005 95.9114 549.005 95.9114C546.143 91.6241 533.087 92.37 533.087 92.37C551.054 94.6626 555.542 113.659 555.542 113.659C544.183 102.584 537.979 106.612 537.979 106.612C546.898 107.787 553.73 118.228 554.156 118.881C548.137 112.468 540.364 115.356 540.364 115.356C558.974 119.252 564.369 143.88 564.682 145.427C561.228 136.891 550.314 137.301 550.314 137.301C560.933 140.711 564.849 164.071 564.849 164.071C562.909 160.213 555.245 159.784 555.245 159.784C565.624 167.558 565.31 174.4 566.344 197.369C566.879 209.113 561.321 210.01 555.782 208.07Z"
            fill="#ADDAED" />
        <path
            d="M555.198 207.859C555.387 207.925 555.575 207.99 555.782 208.075C556.653 210.124 557.168 211.332 557.272 211.57C556.587 210.351 555.905 209.132 555.198 207.859Z"
            fill="#ADDAED" />
        <path
            d="M305.873 31.5528C306.26 32.3561 319.141 57.7903 320.181 60.8206C320.025 60.5747 309.922 44.8245 306.094 42.1631C306.094 42.1631 320.126 65.8757 321.458 69.9034C322.767 73.9311 317.357 83.6424 318.576 87.2603C319.777 90.8972 305.171 67.3485 301.144 65.5588C301.144 65.5588 317.449 90.7278 316.415 107.992C315.419 125.012 315.327 149.865 316.047 152.419C315.141 149.717 299.428 102.958 281.48 93.5423C281.996 94.3812 298.743 121.452 300.408 127.401C300.408 127.401 288.312 107.749 284.804 105.587C284.804 105.587 304.487 148.895 303.693 158.125C302.937 167.333 297.562 174.941 297.562 174.941C297.562 174.941 288.705 139.935 283.772 134.825C283.917 135.412 294.058 176.608 292.061 182.788C290.029 189.016 266.152 219.013 266.152 219.013C266.152 219.013 261.702 226.137 256.182 230.648C267.189 172.17 276.037 80.0437 282.558 -6.5H324.047C326.429 -3.68279 328.197 -1.22354 328.53 0.194624C329.747 5.3044 323.747 24.1668 326.773 32.1293C326.625 31.8889 317.035 16.4557 309.141 11.7914C310.118 12.9281 327.348 32.971 328.511 45.9093C329.692 59.1838 326.849 61.6622 326.388 65.9878C326.388 65.9878 312.02 35.7308 305.873 31.5528Z"
            fill="#CFE0E8" />
        <path
            d="M275.044 -6.5C266.673 101.423 257.609 207.283 255.554 231.151C249.497 235.813 242.259 236.985 238.196 222.295C230.237 193.511 227.08 185.177 236.739 171.342C236.182 171.547 227.468 175.165 226.638 180.57C226.638 180.57 222.096 150.162 233.765 141.569C232.952 141.812 220.136 145.894 219.362 157.472C219.121 155.458 215.853 122.851 237.255 110.396C237.255 110.396 226.507 110.006 221.651 120.408C221.91 119.419 226.139 103.724 236.682 98.6138C236.682 98.6138 227.394 96.1901 217.828 114.517C217.828 114.517 215.725 89.255 236.922 79.0573C235.961 79.3196 220.508 83.6616 218.753 89.9272C218.753 89.9272 213.545 66.5671 228.649 61.9792C228.649 61.9792 219.896 61.3261 218.568 63.9001C217.258 66.455 226.507 42.0675 239.083 37.5206C238.122 37.7255 222.649 41.286 218.161 55.0632C218.161 55.0632 221.19 23.2487 231.932 15.3381C231.732 15.4092 225.28 17.7537 222.317 24.4702C222.317 24.4702 221.19 7.64342 232.731 -6.5L275.044 -6.5Z"
            fill="#CFE0E8" />
        <path
            d="M256.185 230.654C255.98 230.812 255.775 230.971 255.552 231.159C255.303 234.048 255.151 235.75 255.121 236.086C255.475 234.302 255.827 232.517 256.185 230.654Z"
            fill="#CFE0E8" />
        <path
            d="M772.543 164.538C773.678 164.694 787.427 166.607 798 170.145V174.137C794.742 174.271 791.004 175.004 787.168 176.916C787.626 176.804 792.344 175.777 798 176.536V208.518C796.341 208.78 794.698 209.152 793.097 209.654C793.097 209.654 786.374 214.8 797.934 213.234C797.934 213.234 797.956 213.234 798 213.234V254.355C755.553 191.125 717.628 136.899 702.228 115.022L702.248 115.003C692.96 101.674 667.182 64.7608 662.677 58.9625C657.174 51.858 642.751 34.1677 642.751 34.1677C642.751 34.1677 647.572 28.2191 647.035 26.5796L706.643 113.979C710.687 113.681 714.692 115.115 725.993 113.197C744.975 109.989 753.046 108.686 753.987 107.38C754.947 106.073 757.477 120.99 764.216 123.859C764.216 123.859 737.109 130.535 728.301 128.819C732.438 129.715 749.963 133.144 765.343 129.322C765.417 129.322 769.572 129.341 774.077 133.666C774.077 133.666 761.299 133.314 754.8 134.915C748.391 136.481 746.675 137.62 744.421 137.47C745.234 137.749 755.962 141.011 773.837 137.88C773.837 137.88 778.268 148.526 790.308 156.114C789.386 155.739 772.562 149.048 756.443 154.155C756.443 154.155 783.918 155.212 798 163.661V165.994C791.948 164.956 780.614 163.385 772.543 164.541V164.538Z"
            fill="#CFE0E8" />
        <path
            d="M797.999 292.026V267.63C759.43 209.291 721.829 153.206 696.965 117.965C696.632 118.17 696.338 118.394 696.078 118.599C691.98 121.695 687.806 126.616 681.918 140.022C680.826 142.52 679.85 149.176 672.794 169.386C671.039 174.848 668.235 179.843 667.31 182.884C667.31 182.884 667.847 184.543 677.596 174.214C687.328 163.904 689.265 140.787 689.265 140.787C696.376 165.115 676.395 179.602 676.395 179.602C681.487 181.395 696.979 205.195 697.222 205.567C694.662 199.205 706.697 183.909 710.427 179.378C700.307 192.054 703.115 214.13 703.464 216.497C702.209 203.129 713.77 189.128 713.77 189.128C701.472 210.458 712.681 233.424 712.681 233.424C710.629 215.619 723.038 206.039 723.038 206.039C704.261 233.053 732.55 257.438 732.55 257.438C729.076 246.587 738.421 231.727 738.918 230.946C727.728 271.42 745.327 272.297 749.149 275.486C752.825 278.598 759.452 293.214 759.858 294.13C756.571 280.836 767.946 264.709 768.573 263.832C759.954 282.246 763.419 297.977 766.412 305.978C766.412 305.98 766.415 305.983 766.415 305.986C766.928 307.341 767.408 308.456 767.831 309.35C767.834 309.352 767.834 309.358 767.836 309.361C768.538 310.852 769.037 311.653 769.037 311.653C768.759 310.945 769.018 309.844 769.534 308.634C769.536 308.634 769.536 308.626 769.539 308.623C770.39 306.593 771.918 304.286 772.693 303.207C772.693 303.204 772.696 303.204 772.696 303.202C772.952 302.822 773.13 302.584 773.151 302.557C773.061 302.742 772.991 302.923 772.917 303.106C772.917 303.106 772.917 303.111 772.917 303.114C772.218 304.693 771.812 306.237 771.626 307.743C771.624 307.748 771.624 307.751 771.624 307.757C770.33 317.823 778.641 325.914 778.641 325.914C776.407 316.706 785.768 302.499 786.303 301.715C773.544 329.532 792.654 350.971 792.654 350.971C790.865 343.7 794.649 337.773 794.649 337.773C793.159 343.063 795.14 350.703 798.002 357.879V292.026H797.999Z"
            fill="#CFE0E8" />
        <path
            d="M785.82 636.251V683.482C778.071 683.742 764.972 682.531 759.239 685.813C759.239 685.813 773.105 673.806 776.521 665.174C775.561 666.33 758.5 686.521 745.998 689.597C733.182 692.764 730.32 690.286 726.018 690.491C726.018 690.491 753.55 671.568 756.691 664.838C756.691 664.838 733 682.009 730.138 683.518C730.138 683.518 744.276 670.921 746.328 666.666C746.001 666.937 725.177 684.242 721.439 686.13C717.93 687.917 708.716 684.6 704.766 685.589C704.487 685.643 704.231 685.736 704.007 685.848C703.344 686.184 703.62 685.775 704.471 684.843C708.07 681.039 721.734 668.661 722.659 665.21C722.659 665.21 713.592 673.396 702.586 679.678C701.442 680.348 700.261 680.982 699.077 681.599C693.871 684.283 688.406 686.335 683.383 686.78C666.578 688.329 642.224 691.964 639.823 693.046C642.077 691.89 676.826 673.768 688.995 656.149C689.568 655.329 690.087 654.509 690.548 653.69C691.284 652.364 691.896 651.042 692.338 649.736C692.338 649.736 690.695 651.173 688.147 653.334C688.073 653.392 688.019 653.446 687.945 653.504C680.613 659.747 666.284 671.716 662.055 673.656C663.07 672.762 679.506 658.592 681.02 654.864C681.02 654.864 641.558 680.982 632.399 681.561C628.328 681.84 624.421 681.135 621.341 680.299C621.335 680.296 621.327 680.296 621.322 680.293C620.951 680.181 620.601 680.088 620.268 679.976C620.263 679.973 620.255 679.973 620.249 679.971C619.835 679.842 619.439 679.714 619.062 679.591C619.057 679.591 619.054 679.591 619.049 679.585C616.558 678.727 615.005 677.943 615.005 677.943C615.005 677.943 616.334 677.367 618.514 676.416C618.519 676.413 618.522 676.41 618.528 676.41C618.724 676.32 618.923 676.23 619.12 676.134C619.731 675.875 620.378 675.577 621.079 675.279C621.466 675.091 621.873 674.924 622.296 674.738C622.296 674.738 622.296 674.735 622.301 674.735C622.721 674.533 623.163 674.331 623.619 674.126C623.619 674.126 623.624 674.126 623.627 674.126C633.69 669.538 649.348 662.026 652.229 658.223C651.583 658.482 639.488 663.535 627.799 667.786C627.796 667.786 627.793 667.789 627.791 667.789C627.447 667.918 627.098 668.046 626.751 668.175C626.751 668.175 626.749 668.175 626.746 668.177C626.23 668.363 625.712 668.533 625.215 668.718C625.21 668.718 625.207 668.718 625.201 668.724C623.753 669.24 622.323 669.721 620.951 670.186C620.945 670.186 620.937 670.186 620.931 670.191C620.637 670.303 620.342 670.396 620.05 670.486C620.05 670.486 620.048 670.486 620.045 670.486C613.786 672.555 608.522 673.954 606.509 673.618C606.342 673.601 606.157 673.544 605.955 673.506C605.955 673.506 605.95 673.506 605.947 673.506C605.357 673.339 604.626 673.099 603.767 672.749C603.764 672.749 603.761 672.746 603.759 672.746C600.25 671.366 594.747 668.568 589.041 665.51C589.041 665.51 589.036 665.51 589.033 665.505C578.417 659.786 567.159 653.17 567.159 653.17C567.159 653.17 559.533 649.796 554.27 644.967C568.231 645.506 584.037 645.637 601.137 645.451H601.139C601.259 645.432 601.393 645.432 601.516 645.432H601.543C602.599 645.432 603.658 645.413 604.714 645.396H604.754C606.583 645.377 608.427 645.339 610.274 645.301C611.27 645.284 612.269 645.265 613.284 645.246H613.316C616.075 645.208 618.888 645.134 621.723 645.079H621.728C622.519 645.06 623.33 645.022 624.14 645.003C624.708 645.003 625.259 644.984 625.826 644.967H625.84C674.687 643.669 731.281 640.281 785.814 636.253L785.82 636.251Z"
            fill="#CFE0E8" />
        <path
            d="M785.82 579.527V584.071C783.896 582.377 781.809 581.035 779.643 580.42C779.643 580.42 782.235 579.641 785.82 579.527Z"
            fill="#CFE0E8" />
        <path
            d="M785.82 587.986V628.66C728.891 632.778 672.75 636.592 629.409 639.464H629.401C628.784 639.502 628.184 639.538 627.584 639.576H627.562C591.336 642 564.325 643.732 553.686 644.404C548.238 639.054 546.003 632.007 559.779 625.76C586.774 613.511 594.477 609.13 609.47 616.699C609.175 616.178 604.335 608.013 598.908 607.994C598.908 607.994 628.064 598.895 638.2 609.335C638.2 609.335 632.274 596.285 620.457 597.274C622.394 596.733 653.842 588.604 669.223 608.106C669.223 608.106 668.003 597.329 657.111 594.031C658.107 594.143 674.117 596.025 680.69 605.794C680.69 605.794 681.67 596.154 662.298 589.35C662.298 589.35 686.709 583.459 699.893 603.127C699.487 602.195 692.914 587.41 686.524 586.59C686.524 586.59 708.61 577.903 715.369 592.296C715.369 592.296 714.684 583.459 711.988 582.508C709.273 581.595 734.553 587.188 740.885 599.083C740.555 598.206 735.439 585.005 723.085 581.371C722.275 581.147 721.442 580.942 720.575 580.792C720.575 580.792 721.571 580.737 723.251 580.718C731.082 580.532 753.848 580.775 761.551 588.623C761.551 588.623 758.298 582.377 751.136 580.382C751.136 580.382 769.46 576.28 785.823 587.986H785.82Z"
            fill="#CFE0E8" />
        <path
            d="M554.276 644.959C554.09 644.779 553.905 644.596 553.686 644.402C550.821 644.585 549.13 644.688 548.797 644.705C550.598 644.792 552.398 644.877 554.276 644.956V644.959Z"
            fill="#CFE0E8" />
        <g opacity="0.75">
            <path
                d="M792.671 604.263C792.671 604.263 795.184 618.598 798 627.599V701.797C779.187 755.351 763.815 801.784 757.551 820.879L757.532 820.863C753.581 832.757 742.632 865.717 741.137 871.182C739.658 876.532 736.594 888.555 735.429 893.124C735.374 893.367 735.319 893.572 735.262 893.777C735.079 894.523 734.967 894.952 734.967 894.952C734.967 894.952 729.134 894.635 728.356 895.733L754.91 818.587C752.88 816.201 751.938 813.031 745.603 806.823C734.987 796.401 730.517 791.945 729.281 791.945C728.045 791.945 736.056 783.556 734.746 778.039C734.746 778.039 751.199 791.964 754.154 798.265C752.825 795.265 746.951 782.736 737.59 774.85C737.59 774.85 735.669 772.222 736.28 767.393C736.28 767.393 741.892 775.558 745.827 778.894C749.704 782.195 751.199 782.755 752.121 784.228C751.919 783.594 749.038 775.391 738.976 765.623C738.976 765.623 743.518 757.996 742.667 746.979C742.667 746.979 746.121 761.106 756.901 769.104C756.689 768.784 742.217 747.11 743.832 734.691C743.832 734.691 749.704 747.837 755.944 754.285C755.335 753.168 744.94 733.778 746.361 726.376C746.361 726.376 748.282 734.991 756.885 739.503C756.296 739 744.312 728.242 751.753 715.509C751.753 715.509 759.433 699.977 759.433 696.25C759.433 696.25 763.663 712.934 774.298 720.878C774.298 720.878 780.522 722.741 774.298 716.216C774.298 716.216 763.903 703.745 760.893 694.944C760.893 694.944 762.519 689.408 762.056 687.394C762.056 687.394 773.444 704.313 777.065 705.568C776.885 705.305 765.289 688.44 765.436 683.814C765.436 683.814 777.136 700.6 779.91 702.455C779.709 702.152 766.817 682.702 766.525 678.836C766.525 678.836 773.136 664.239 773.45 657.713C773.45 657.713 781.905 679.756 785.91 682.412C785.777 682.12 776.522 662.192 777.752 657.713C777.752 657.713 783.602 670.144 788.366 674.638C788.199 674.363 777.438 656.601 777.605 652.587C777.752 648.54 786.06 635.807 785.452 629.282C785.452 629.282 789.422 642.892 794.352 648.038C793.853 646.994 785.193 628.536 786.985 618.71C788.83 608.624 791.452 607.375 792.671 604.263Z"
                fill="#0E5777" />
            <path
                d="M798 779.884C797.94 779.889 797.883 779.897 797.823 779.903C797.823 779.903 797.883 779.905 798 779.911V786.1C796.469 786.373 794.914 786.499 793.356 786.428C794.418 786.494 796.068 786.575 798 786.6V806.676C792.128 807.239 784.966 809.725 779.286 817.264C779.286 817.264 788.726 811.43 798 809.687V816.556C787.411 820.021 783.888 821.825 782.164 822.205C771.253 824.628 766.323 824.254 762.555 823.098C762.315 823.024 762.039 822.951 761.761 822.839C770.235 796.866 783.436 759.119 798 718.361V779.884Z"
                fill="#0E5777" />
        </g>
        <g opacity="0.75">
            <path
                d="M753.392 -6.5C752.498 3.54467 750.762 19.8331 748.743 22.6039C745.788 26.6698 721.21 42.8517 721.21 42.8517C721.21 42.8517 716.28 46.9723 711.167 48.9479C719.543 33.6076 728.864 14.5922 738.585 -6.5L753.392 -6.5Z"
                fill="#0E5777" />
            <path
                d="M763.09 7.3729C760.359 13.9364 754.634 18.2045 754.634 18.2045C754.634 18.2045 755.603 3.40531 755.18 -6.5H763.976C764.167 -0.204319 764.001 5.21423 763.09 7.3729Z"
                fill="#0E5777" />
            <path
                d="M777.234 -6.5C775.095 -0.0403705 773.542 5.15958 773.487 6.19793C773.474 5.42736 773.419 0.314855 772.887 -6.5H777.234Z"
                fill="#0E5777" />
            <path
                d="M733.991 -6.5C722.52 20.8414 713.904 41.2914 710.575 49.172C705.036 51.112 699.479 50.2158 699.994 38.4879C700.993 15.5021 700.66 8.65991 711.017 0.866819C711.017 0.866819 703.386 1.31495 701.418 5.18417C701.457 4.94371 702.393 -0.526755 704.534 -6.5L733.991 -6.5Z"
                fill="#0E5777" />
            <path
                d="M711.162 48.9478C710.973 49.0134 710.785 49.0817 710.581 49.1637C709.716 51.2158 709.2 52.4235 709.096 52.6613C709.778 51.4426 710.46 50.2211 711.162 48.9451V48.9478Z"
                fill="#0E5777" />
        </g>
        <g opacity="0.75">
            <path
                d="M462.101 1097.35C462.849 1098.35 451.398 1096.84 447.767 1101.19C447.767 1101.19 449.135 1079.56 452.402 1073.41C450.803 1076.27 444.287 1088.49 443.548 1100.77C443.548 1100.77 442.583 1103.9 438.371 1106.28C438.371 1106.28 441.556 1096.88 441.883 1091.69C442.217 1086.58 441.79 1085.04 442.402 1083.42C442.03 1083.96 437.195 1091.17 435.358 1105.16C435.358 1105.16 426.596 1106 418.311 1113.24C418.787 1112.64 427.526 1101.67 427.513 1088.53C427.513 1088.53 418.756 1113.49 407.795 1119.61C407.795 1119.61 414.801 1107.04 416.254 1098.13C415.81 1099.09 409.375 1112.9 403.35 1119.5L401.758 1119.22C403.22 1116.35 404.768 1111.76 403.896 1106.17C403.862 1106.67 403.239 1113.51 398.926 1118.74L376.326 1114.86C377.711 1111.19 378.708 1107.16 378.716 1103.12C378.716 1103.12 376.512 1096.97 374.997 1105.91C374.997 1105.91 374.122 1109.57 372.628 1114.23L364.846 1112.89C365.019 1111.61 365.041 1110.59 364.853 1109.99C364.853 1109.99 364.493 1111.06 363.894 1112.73L360.328 1112.12C360.571 1110.96 360.704 1110.06 360.679 1109.54C360.679 1109.54 360.341 1110.49 359.777 1112.02L317.965 1104.85C384.76 1084.75 445.873 1064.69 468.444 1057.21L468.441 1057.22C480.272 1053.35 513.063 1042.61 518.32 1040.58C524.74 1038.11 540.929 1031.43 540.929 1031.43C540.929 1031.43 544.152 1036.35 545.464 1036.33L468.183 1060.7C467.467 1063.77 465.514 1066.43 464.298 1075.26C462.285 1090.07 461.377 1096.34 462.101 1097.35Z"
                fill="#0E5777" />
            <path
                d="M467.508 1052.62C430.006 1065.15 366.607 1084.37 305.087 1102.64L236.475 1090.88C233.96 1088.32 230.857 1085.88 228.364 1086.11C228.364 1086.11 240.151 1078.22 248.018 1082.94C249.003 1083.52 249.921 1084.29 250.738 1085.32C250.817 1085.4 250.896 1085.49 250.972 1085.6C250.972 1085.6 250.925 1085.42 250.843 1085.14C250.543 1084.28 249.861 1082.35 248.993 1080.85C248.352 1079.78 247.62 1078.92 246.85 1078.82C246.206 1078.75 247.49 1078.69 249.803 1078.86C255.281 1079.27 266.502 1080.91 271.236 1086.41C270.535 1085.34 263.831 1075.61 253.049 1076.1C253.049 1076.1 276.558 1069.56 285.133 1075.17C285.133 1075.17 281.689 1071.01 275.988 1070.71C275.988 1070.71 295.968 1061.37 313.288 1077.16C312.793 1076.55 304.64 1066.41 297.443 1065.99C297.443 1065.99 308.021 1060.13 315.636 1067.18C315.245 1066.62 311.795 1061.95 310.007 1062.09C310.007 1062.09 328.319 1057.25 344.907 1072.6C344.389 1071.91 335.274 1059.84 324.877 1059.29C325.628 1059.17 337.795 1057.59 340.899 1055.55C344.107 1053.45 348.771 1040.58 375.668 1058.09C375.169 1057.49 366.512 1047.23 357.838 1047.35C357.838 1047.35 382.071 1031.89 397.419 1051.97C397.419 1051.97 393.302 1040.57 379.889 1038.07C379.889 1038.07 399.168 1034.96 411.854 1048.91C411.622 1048.55 404.106 1037.05 394.197 1035.03C395.258 1035.2 412.647 1038.01 419.72 1048.66C417.296 1044.88 408.958 1032.53 403.761 1032.91C405.004 1032.54 424.951 1026.67 427.373 1023.36C427.373 1023.36 433.334 1041.48 452.664 1041.73C452.664 1041.73 436.293 1035.04 431.021 1025.48C425.75 1015.89 427.085 1015.87 427.085 1015.87C429.076 1017.26 432.068 1020.45 435.621 1023.01C448.718 1032.84 453.337 1035.08 454.9 1036.44C463.314 1043.86 465.927 1048.07 467.25 1051.82C467.322 1052.06 467.426 1052.32 467.508 1052.62Z"
                fill="#0E5777" />
        </g>
        <g opacity="0.75">
            <path
                d="M904.064 222.06L878.981 233.14L878.76 233.236L872.477 236.012L841.525 249.686C839.001 247.825 835.798 247.125 829.179 241.239C818.063 231.364 813.316 227.214 813.217 225.968C813.122 224.722 805.46 233.441 799.911 232.553C799.911 232.553 814.945 248.027 821.397 250.511C818.328 249.407 805.501 244.472 796.983 235.662C796.983 235.662 794.238 233.935 789.518 234.925C789.518 234.925 798.02 239.939 801.622 243.639C805.179 247.284 805.851 248.746 807.376 249.56C806.735 249.404 798.41 247.144 787.979 237.775C787.979 237.775 780.804 242.942 769.857 242.945C769.857 242.945 784.078 245.319 792.817 255.55C792.498 255.367 769.955 242.483 757.816 245.073C757.816 245.073 771.254 249.959 778.108 255.741C776.956 255.213 757.001 246.259 749.803 248.267C749.803 248.267 758.458 249.53 763.584 257.839C763.041 257.285 751.484 246.06 739.492 254.541C739.492 254.541 724.756 263.482 721.072 263.774C721.072 263.774 737.877 266.731 746.548 276.817C746.548 276.817 748.875 282.937 741.948 277.18C741.948 277.18 728.821 267.687 719.896 265.343C719.896 265.343 714.557 267.411 712.532 267.103C712.532 267.103 730.128 277.246 731.648 280.795C731.38 280.637 713.817 270.275 709.261 270.783C709.261 270.783 726.748 281.251 728.797 283.899C728.48 283.722 708.27 272.262 704.432 272.267C704.432 272.267 690.53 280.057 684.113 280.883C684.113 280.883 706.538 287.676 709.474 291.501C709.184 291.392 688.776 283.629 684.448 285.214C684.448 285.214 697.163 290.129 701.979 294.575L904.064 222.06Z"
                fill="#0E5777" />
            <path
                d="M701.987 294.581C701.987 294.581 701.981 294.581 701.979 294.575C701.427 294.294 683.294 284.987 679.373 285.465C675.39 285.927 663.464 295.283 656.973 295.179C656.973 295.179 670.721 298.114 676.187 302.677C675.117 302.256 656.217 294.977 646.654 297.546C636.84 300.191 635.811 302.926 632.831 304.396C632.831 304.396 658.345 306.907 662.921 310.287C662.921 310.287 640.648 307.519 638.168 307.566C638.168 307.566 652.313 310.806 655.251 312.913C655.251 312.913 634.572 308.935 631.339 309.038C628.106 309.145 622.589 315.657 619.667 315.719C616.747 315.799 637.464 320.242 639.805 322.715C639.805 322.715 617.487 317.463 605.397 322.772C593.485 327.994 575.714 334.615 573.69 334.773C575.87 334.713 613.514 333.839 624.984 344.454C624.984 344.454 600.499 339.205 595.733 339.58C595.733 339.58 612.998 343.211 615.468 345.203C615.468 345.203 579.272 342.282 572.874 345.29C566.476 348.283 562.451 354.212 562.451 354.212C562.451 354.212 589.869 351.43 594.821 353.677C594.821 353.677 562.219 357.185 558.293 360.3C554.367 363.412 539.197 388.77 539.197 388.77C539.197 388.77 535.276 393.885 533.494 399.113C583.782 368.804 675.131 326.349 747.298 294.217H747.301C750.624 292.739 753.904 291.283 757.14 289.848C796.519 272.404 829.004 258.525 843.992 252.17C843.986 252.164 843.983 252.159 843.978 252.153C850.349 249.418 863.017 243.989 873.895 239.384C874.471 239.138 875.041 238.898 875.603 238.657C876.31 238.36 877.006 238.067 877.688 237.778C884.67 234.835 890.397 232.455 892.38 231.722C895.128 230.706 899.712 229.096 904.064 227.58L701.987 294.581Z"
                fill="#0E5777" />
            <path
                d="M626.763 396.429C637.353 384.617 633.173 378.477 633.173 378.477C632.299 387.521 622.171 394.754 621.538 395.197C627.702 388.915 624.583 381.174 624.583 381.174C621.323 400.074 597.116 406.304 595.607 406.668C603.948 402.924 603.19 391.912 603.19 391.912C600.156 402.736 577.147 407.449 577.147 407.449C580.912 405.356 581.089 397.621 581.089 397.621C573.731 408.337 566.945 408.236 544.228 410.029C532.629 410.944 531.568 405.362 533.298 399.708C562.211 386.076 764.498 290.774 846.251 256.255C846.382 256.525 846.477 256.798 846.57 257.033C848.005 260.736 848.758 265.668 847.214 276.841C846.93 278.921 844.889 283.664 841.378 299.781C840.338 304.071 840.161 308.478 839.55 310.847C839.55 310.847 838.524 311.713 836.303 300.967C834.085 290.239 842.112 274.327 842.112 274.327C827.689 287.32 834.928 304.983 834.928 304.983C830.838 304.054 810.874 313.427 810.874 313.427C815.097 310.325 813.387 295.39 812.759 290.895C814.32 303.636 803.021 317.282 802.325 318.105C808.601 309.905 806.664 295.903 806.664 295.903C806.132 314.889 789.564 325.302 789.564 325.302C798.064 314.514 793.796 303.163 793.796 303.163C795.221 328.521 766.924 332.866 766.924 332.866C773.734 327.037 773.417 312.905 773.417 312.905C764.471 343.998 752.602 337.342 748.826 337.863C745.162 338.396 734.949 345.241 734.316 345.665C742.029 338.118 740.802 322.264 740.802 322.264C738.256 344.905 721.28 353.368 721.28 353.368C722.821 352.236 722.245 345.736 722.245 345.736C721.11 356.185 709.269 358.745 709.269 358.745C714.587 353.502 713.986 339.765 713.986 339.765C711.168 363.194 690.033 369.388 690.033 369.388C694.132 365.383 694.044 359.948 694.044 359.948C691.22 369.875 669.24 380.493 669.24 380.493C678.189 373.353 676.271 360.546 676.271 360.546C676.372 370.935 661.319 384.166 662.803 382.534C664.288 380.884 661.51 374.67 661.51 374.67C662.217 386.901 644.119 389.265 644.119 389.265C648.275 386.245 647.109 373.096 647.109 373.096C645.423 391.295 626.763 396.432 626.763 396.432V396.429Z"
                fill="#0E5777" />
            <path
                d="M533.494 399.112C533.434 399.304 533.377 399.495 533.3 399.708C531.298 400.651 530.119 401.211 529.887 401.323C531.071 400.593 532.255 399.864 533.494 399.112Z"
                fill="#0E5777" />
        </g>
    </g>
    <defs>
        <clipPath id="clip0_438_22107">
            <rect width="798" height="1093" fill="white" transform="translate(0 -6.5)" />
        </clipPath>
    </defs>
</svg>
    