<svg width="360" height="276" viewBox="0 0 360 276" fill="none" xmlns="http://www.w3.org/2000/svg">
    <g clip-path="url(#clip0_452_498)">
        <path
            d="M133.18 142.525C132.193 143.971 121.641 148.639 121.641 148.639C123.536 148.843 132.428 144.974 132.428 144.974C132.428 144.974 131.705 147.356 129.876 149.029C128.05 150.708 115.618 153.649 115.618 153.649C116.655 154.038 122.821 153.371 122.821 153.371C121.264 154.008 112.508 154.921 112.508 154.921C117.47 157.174 129.986 152.83 130.711 152.574C130.05 152.845 124.795 156.935 121.355 159.936C117.865 162.984 109.835 163.663 109.835 163.663C110.879 164.224 118.288 163.45 117.318 163.792C116.346 164.127 115.185 166.862 114.113 167.245C113.041 167.628 105.695 168.549 105.695 168.549C106.901 168.925 111.981 168.466 111.981 168.466C111.156 168.748 103.403 170.238 103.403 170.238C105.293 170.856 114.104 168.931 114.104 168.931C113.261 169.736 113.204 170.746 110.195 172.672C107.262 174.547 100.164 174.191 99.762 174.169C102.073 175.079 106.988 174.562 106.988 174.562C104.803 175.228 101.794 179.588 100.508 180.169C99.2248 180.757 91.9715 179.609 91.9715 179.609C94.0501 180.552 98.8348 180.798 98.8348 180.798C97.5431 181.792 89.7886 181.428 89.7886 181.428C91.1724 182.37 99.4036 182.185 99.4036 182.185C97.3403 183.148 93.5059 187.207 93.5059 187.207C92.2101 187.626 84.1168 186.008 84.1168 186.008C85.0778 186.658 92.0439 188.215 92.0439 188.215C90.5598 188.878 83.4887 187.336 83.4887 187.336C84.3697 188.338 91.3358 189.777 91.3358 189.777C90.6253 189.894 89.0542 191.148 89.0542 191.148C85.8184 191.34 80.4209 189.634 80.4209 189.634C77.4936 188.489 78.9173 190.25 78.9173 190.25C82.8852 192.631 88.8259 191.791 88.8259 191.791C87.6228 192.284 83.6292 196.811 83.6292 196.811C80.5055 200.891 75.4516 198.447 75.2115 198.323C77.8041 200.503 80.8361 199.985 80.8361 199.985C78.6364 201.421 71.009 200.628 70.5672 200.58C73.4729 201.74 78.4888 201.899 78.4888 201.899C74.6688 204.075 65.6597 202.227 65.6597 202.227C69.6647 204.648 74.6798 203.896 74.6798 203.896C71.0139 205.077 69.1545 207.549 69.1545 207.549C64.6735 205.594 61.6468 205.748 61.4153 205.765C62.0123 205.868 62.3909 206.277 63.9672 207.092C65.5634 207.92 68.9397 208.652 68.9397 208.652C67.4627 209.485 66.3609 209.213 66.3609 209.213C62.5799 207.235 57.7627 206.996 56.6181 206.963C59.0411 207.084 65.7082 210.551 65.7082 210.551C63.7547 210.857 62.1081 214.548 61.9444 214.149C61.7806 213.75 59.7527 212.898 54.9876 210.85C52.1505 209.628 51.0037 209.743 49.9621 209.404L28.5909 228.148C28.84 227.756 27.9667 225.912 27.9667 225.912C27.9667 225.912 32.9093 222.267 34.8201 220.789C36.3808 219.582 45.5683 211.702 48.8794 208.857C48.8777 208.856 48.8753 208.854 48.8737 208.853C61.3467 198.234 115.465 151.802 137.394 127.092C137.348 129.002 136.574 131.106 136.574 131.106C136.574 131.106 134.165 141.075 133.179 142.522L133.18 142.525Z"
            fill="#ADDAED" />
        <path
            d="M106.436 138.029C104.135 143.053 106.182 144.62 106.182 144.62C105.522 141.554 108.152 138.084 108.317 137.871C106.915 140.6 108.775 142.808 108.775 142.808C107.875 136.244 115.327 131.587 115.795 131.306C113.396 133.435 114.809 136.972 114.809 136.972C114.685 133.088 121.895 129.059 121.895 129.059C120.855 130.152 121.61 132.715 121.61 132.715C122.945 128.4 125.229 127.701 132.649 124.664C136.437 123.113 137.382 124.834 137.398 126.878C129.15 134.475 71.4335 187.6 47.6876 207.756C47.6151 207.682 47.5545 207.602 47.4989 207.535C46.6281 206.472 45.8565 204.932 45.1952 201.094C45.0714 200.38 45.2549 198.6 44.7327 192.925C44.6286 191.403 44.2235 189.935 44.1791 189.092C44.1791 189.092 44.4319 188.696 46.3075 191.989C48.1819 195.276 47.1687 201.371 47.1687 201.371C50.63 195.546 46.3449 190.521 46.3449 190.521C47.8136 190.385 53.5128 185.153 53.5128 185.153C52.4252 186.628 54.5719 191.352 55.256 192.762C53.39 188.743 55.7363 183.04 55.8832 182.695C54.6456 186.066 56.7699 190.46 56.7699 190.46C54.9469 184.162 59.399 178.954 59.399 178.954C57.6883 183.415 60.3147 186.686 60.3147 186.686C57.1648 178.505 66.1859 174.028 66.1859 174.028C64.5189 176.677 66.1144 181.288 66.1144 181.288C65.8343 170.104 70.5117 171.012 71.7208 170.434C72.8922 169.864 75.5914 166.513 75.7586 166.306C73.9698 169.618 76.0518 174.697 76.0518 174.697C74.5183 166.981 79.3127 162.369 79.3127 162.369C78.9155 162.907 79.7936 164.981 79.7936 164.981C79.0726 161.425 82.7691 159.307 82.7691 159.307C81.5408 161.603 83.189 166.053 83.189 166.053C81.6636 158.048 88.0907 153.736 88.0907 153.736C87.1401 155.495 87.7421 157.272 87.7421 157.272C87.6425 153.705 93.8856 147.846 93.8856 147.846C91.6404 151.157 93.6324 155.16 93.6324 155.16C92.5035 151.756 96.1522 145.785 95.8263 146.482C95.5029 147.184 97.0881 148.927 97.0881 148.927C95.5632 144.984 101.376 142.256 101.376 142.256C100.302 143.697 102.079 147.892 102.079 147.892C100.725 141.729 106.435 138.03 106.435 138.03L106.436 138.029Z"
            fill="#ADDAED" />
        <path
            d="M137.402 127.095C137.402 127.025 137.402 126.956 137.405 126.878C137.976 126.352 138.312 126.041 138.378 125.979C138.058 126.346 137.738 126.714 137.402 127.095Z"
            fill="#ADDAED" />
        <path
            d="M-0.000202534 251.97C2.10292 253.392 3.58501 253.835 3.74503 253.88C3.21259 253.584 2.99826 253.069 1.78287 251.77C1.33996 251.294 0.67131 250.751 -0.000202459 250.253L-0.000202398 248.846C0.159817 248.916 0.242691 248.971 0.242691 248.971C3.14115 252.104 7.59884 253.951 8.66469 254.363C6.4225 253.436 1.30853 247.93 1.30853 247.93C3.25163 248.296 6.03961 245.376 6.05866 245.807C6.08438 246.238 7.70267 247.724 11.505 251.255C13.7663 253.359 14.8845 253.635 15.7551 254.305L32.2419 247.781L41.1135 244.269L42.0355 243.903L42.1851 243.845C42.146 243.871 42.1203 243.916 42.0946 243.974C42.0098 244.153 41.9774 244.469 41.9707 244.81C41.9517 245.447 42.0231 246.161 42.0231 246.161C42.0231 246.161 36.1415 247.93 33.8412 248.676C33.6392 248.74 33.3211 248.856 32.9115 249.004C32.4239 249.178 31.8133 249.403 31.1113 249.66C31.0275 249.698 30.9427 249.731 30.8513 249.763C26.686 251.313 19.6346 254.015 16.5933 255.186C13.2253 256.463 7.37786 258.689 -0.000202953 261.562L-0.000202534 251.97Z"
            fill="#ADDAED" />
        <path
            d="M2.97151 269.852C2.78768 272.878 1.41894 275.231 -0.000286988 276.887L-0.000286399 263.406C6.62911 260.752 12.5661 258.424 17.3409 256.62C17.3857 256.717 17.4181 256.813 17.4447 256.897C17.9124 258.19 18.1201 259.895 17.4514 263.735C17.3276 264.449 16.5542 266.063 15.1435 271.576C14.7282 273.05 14.6177 274.568 14.371 275.372C14.371 275.372 14.0005 275.662 13.3442 271.93C12.6813 268.206 15.6836 262.809 15.6836 262.809C10.4648 267.132 12.8108 273.301 12.8108 273.301C11.4011 272.938 4.38883 275.889 4.26024 275.943C5.77948 274.917 5.3442 269.749 5.17465 268.193C5.56518 272.478 1.69134 276.915 1.23033 277.424C3.49157 274.658 2.97151 269.852 2.97151 269.852Z"
            fill="#ADDAED" />
        <path
            d="M306.277 193.418L306.277 193.417C306.966 191.629 308.401 189.912 308.401 189.912C308.401 189.912 314.016 181.338 315.433 180.308C316.85 179.279 328.359 178.43 328.359 178.43C326.644 177.6 316.966 178.256 316.966 178.256C316.966 178.256 318.448 176.256 320.73 175.297C323.018 174.326 335.715 175.741 335.715 175.741C334.87 175.027 328.84 173.58 328.84 173.58C330.503 173.504 338.945 175.555 339.074 175.586C335.153 171.799 321.906 171.683 321.139 171.676C321.854 171.644 328.177 169.559 332.427 167.894C336.638 166.234 344.184 168.17 344.515 168.254C343.671 167.366 336.502 165.616 337.522 165.623C338.549 165.629 340.564 163.448 341.701 163.448C342.838 163.448 350.071 165.05 350.071 165.05C349.065 164.291 344.125 163.018 344.125 163.018C344.995 163.023 352.801 164.233 352.801 164.233C351.229 163.018 342.279 161.86 342.279 161.86C343.345 161.39 343.735 160.457 347.219 159.653C350.61 158.874 357.181 161.596 357.551 161.756C355.68 160.122 350.877 158.952 350.877 158.952C353.158 159.062 357.461 155.967 358.864 155.851C360.222 155.742 366.331 159.042 366.702 159.241C365.045 157.652 360.652 155.825 360.652 155.825C362.193 155.328 369.283 158.234 369.385 158.276C368.395 156.918 360.586 154.327 360.586 154.327C362.848 154.114 367.826 151.587 367.826 151.587C369.18 151.625 376.157 155.804 376.267 155.87C375.576 154.929 369.541 151.123 369.541 151.123C371.154 151.002 377.214 154.769 377.307 154.827C376.811 153.592 370.738 149.895 370.738 149.895C371.445 150.023 373.344 149.367 373.344 149.367C376.457 150.274 380.967 153.696 380.967 153.696C380.978 153.706 380.99 153.716 381 153.725L381 160.299C355.527 170.488 323.92 183.737 306.277 193.418Z"
            fill="#ADDAED" />
        <path
            d="M306.205 193.618C313.285 190.617 349.537 175.256 381 162.361L381 175.313C379.475 176.033 377.673 177.134 377.516 177.228C380.317 174.712 380.064 169.231 380.064 169.231C378.922 176.954 372.944 179.7 372.85 179.742C373.402 179.366 373.272 177.118 373.272 177.118C372.752 180.714 368.56 181.46 368.56 181.46C370.491 179.711 370.432 174.969 370.432 174.969C369.178 183.016 361.679 184.915 361.679 184.915C363.16 183.583 363.192 181.705 363.192 181.705C362.12 184.992 354.718 188.298 354.257 188.497C357.467 186.13 356.934 181.711 356.934 181.711C356.856 185.294 351.411 189.694 351.95 189.147C352.489 188.594 351.586 186.42 351.586 186.42C351.696 190.646 345.301 191.257 345.301 191.257C346.796 190.26 346.536 185.712 346.536 185.712C345.737 191.971 339.115 193.535 339.115 193.535C342.975 189.578 341.571 187.416 341.571 187.416C341.162 190.524 337.522 192.904 337.295 193.052C339.53 190.955 338.523 188.247 338.523 188.247C337.165 194.731 328.58 196.61 328.041 196.719C331.017 195.516 330.874 191.714 330.874 191.714C329.685 195.413 321.542 196.777 321.542 196.777C322.887 196.101 323.037 193.431 323.037 193.431C320.327 197.047 317.942 196.938 309.935 197.298C305.841 197.484 305.529 195.548 306.205 193.618Z"
            fill="#ADDAED" />
        <path
            d="M306.278 193.415C306.255 193.481 306.233 193.546 306.203 193.618C305.489 193.922 305.068 194.101 304.985 194.137C305.41 193.899 305.834 193.661 306.278 193.415Z"
            fill="#ADDAED" />
        <path
            d="M377.575 106.557C377.295 106.692 368.429 111.179 367.373 111.542C367.458 111.487 372.949 107.968 373.876 106.634C373.876 106.634 365.61 111.523 364.207 111.986C362.803 112.443 359.417 110.558 358.156 110.983C356.888 111.401 365.097 106.313 365.721 104.91C365.721 104.91 356.947 110.59 350.93 110.23C344.996 109.883 336.333 109.851 335.443 110.102C336.385 109.786 352.684 104.312 355.966 98.0595C355.674 98.2391 346.238 104.073 344.164 104.653C344.164 104.653 351.014 100.44 351.768 99.2172C351.768 99.2172 336.672 106.074 333.454 105.798C330.244 105.534 327.592 103.662 327.592 103.662C327.592 103.662 339.795 100.576 341.576 98.8579C341.371 98.9083 327.011 102.441 324.857 101.746C322.686 101.037 312.23 92.7195 312.23 92.7195C312.23 92.7195 309.746 91.1692 308.174 89.2463C328.558 93.0807 360.672 96.1632 390.839 98.4349L390.839 112.888C389.857 113.718 389 114.334 388.506 114.45C386.725 114.874 380.149 112.784 377.374 113.838C377.458 113.787 382.837 110.446 384.463 107.696C384.067 108.036 377.08 114.039 372.57 114.443C367.943 114.855 367.079 113.865 365.571 113.704C365.571 113.704 376.118 108.699 377.575 106.557Z"
            fill="#CFE0E8" />
        <path
            d="M390.839 95.8173C353.219 92.9012 316.319 89.7436 307.999 89.0278C306.374 86.9177 305.965 84.396 311.086 82.9807C321.119 80.208 324.024 79.1083 328.847 82.4731C328.775 82.2792 327.514 79.2432 325.63 78.9543C325.63 78.9543 336.23 77.3717 339.225 81.437C339.141 81.1538 337.717 76.6892 333.682 76.4193C334.384 76.3356 345.75 75.1969 350.091 82.6527C350.091 82.6527 350.228 78.9087 346.601 77.2168C346.946 77.3071 352.417 78.7804 354.199 82.4531C354.199 82.4531 355.043 79.2176 348.655 75.8851C348.655 75.8851 357.461 75.1522 361.016 82.5368C360.924 82.2022 359.411 76.8185 357.227 76.2073C357.227 76.2073 365.37 74.3928 366.969 79.6548C366.969 79.6548 367.196 76.6056 366.299 76.1427C365.409 75.6864 373.91 78.9087 375.495 83.2896C375.423 82.955 374.182 77.5646 369.38 76.0011C369.38 76.0011 380.469 77.0561 383.227 80.7983C383.202 80.7289 382.385 78.4809 380.044 77.4487C380.044 77.4487 385.909 77.0561 390.839 81.0768L390.839 95.8173Z"
            fill="#CFE0E8" />
        <path
            d="M308.172 89.2472C308.117 89.1759 308.061 89.1046 307.996 89.0266C306.989 88.9402 306.395 88.8869 306.278 88.8765C306.9 89 307.522 89.1226 308.172 89.2472Z"
            fill="#CFE0E8" />
        <path
            d="M321.379 269.132C321.325 269.527 320.658 274.317 319.425 278L318.033 278C317.987 276.865 317.731 275.563 317.065 274.226C317.104 274.386 317.462 276.029 317.197 278L306.049 278C305.957 277.422 305.828 276.85 305.653 276.292C305.653 276.292 303.859 273.95 304.405 277.977C304.405 277.977 304.405 277.985 304.405 278L290.071 278C312.112 263.213 331.014 250.001 338.64 244.636L338.646 244.643C343.293 241.407 356.16 232.427 358.181 230.857C360.658 228.94 366.824 223.916 366.824 223.916C366.824 223.916 368.898 225.595 369.469 225.408L339.004 246.174C339.107 247.583 338.607 248.978 339.276 252.915C340.394 259.528 340.849 262.339 341.304 262.667C341.759 263.002 336.559 263.883 335.559 266.231C335.559 266.231 333.232 256.787 333.83 253.719C333.518 255.16 332.323 261.265 333.655 266.623C333.655 266.649 333.649 268.097 332.141 269.666C332.141 269.666 332.264 265.215 331.705 262.95C331.16 260.718 330.762 260.12 330.815 259.335C330.718 259.618 329.58 263.355 330.672 269.582C330.672 269.582 326.961 271.126 324.316 275.32C324.446 274.999 326.779 269.138 324.999 263.523C324.999 263.523 324.63 273.094 321.685 278L320.872 278C321.234 275.892 321.781 271.943 321.378 269.132L321.379 269.132Z"
            fill="#CFE0E8" />
        <path
            d="M276.94 278L285.443 278C305.779 264.563 325.329 251.464 337.614 242.802C337.542 242.686 337.464 242.584 337.393 242.493C336.314 241.066 334.598 239.611 329.925 237.56C329.055 237.18 326.734 236.84 319.69 234.382C317.786 233.771 316.044 232.793 314.984 232.471C314.984 232.471 314.406 232.658 318.007 236.055C321.6 239.445 329.658 240.12 329.658 240.12C321.178 242.597 316.128 235.636 316.128 235.636C315.503 237.41 307.207 242.807 307.078 242.892C309.295 242 314.627 246.193 316.206 247.492C311.788 243.967 304.092 244.945 303.268 245.066C307.927 244.629 312.808 248.657 312.808 248.657C305.373 244.373 297.367 248.277 297.367 248.277C303.573 247.562 306.913 251.885 306.913 251.885C297.496 245.344 288.996 255.199 288.996 255.199C292.779 253.989 297.958 257.244 298.231 257.417C284.122 253.519 283.817 259.65 282.705 260.982C281.62 262.262 276.525 264.571 276.206 264.713C280.84 263.567 286.462 267.53 286.767 267.748C280.349 264.746 274.865 265.953 272.076 266.996C272.075 266.996 272.074 266.997 272.073 266.997C271.601 267.175 271.212 267.343 270.901 267.49C270.9 267.491 270.898 267.491 270.897 267.492C270.377 267.736 270.098 267.91 270.098 267.91C270.344 267.813 270.728 267.903 271.15 268.083C271.15 268.084 271.153 268.084 271.154 268.085C271.862 268.382 272.666 268.914 273.042 269.184C273.043 269.184 273.043 269.185 273.044 269.185C273.176 269.274 273.259 269.336 273.269 269.343C273.204 269.312 273.141 269.287 273.077 269.262C273.077 269.262 273.075 269.262 273.074 269.262C272.524 269.018 271.986 268.877 271.461 268.812C271.459 268.811 271.458 268.811 271.456 268.811C267.947 268.361 265.127 271.256 265.127 271.256C268.337 270.477 273.289 273.739 273.562 273.925C263.866 269.48 256.392 276.138 256.392 276.138C258.927 275.514 260.993 276.833 260.993 276.833C259.149 276.314 256.486 277.004 253.984 278.001L276.94 278.001L276.94 278Z"
            fill="#CFE0E8" />
        <path
            d="M156.949 273.757L140.485 273.757C140.394 271.058 140.816 266.494 139.672 264.497C139.672 264.497 143.858 269.328 146.867 270.518C146.464 270.183 139.426 264.24 138.353 259.884C137.249 255.42 138.113 254.423 138.042 252.924C138.042 252.924 144.638 262.515 146.984 263.609C146.984 263.609 140.998 255.356 140.472 254.359C140.472 254.359 144.863 259.284 146.346 259.999C146.252 259.885 140.22 252.631 139.562 251.329C138.939 250.106 140.095 246.896 139.75 245.52C139.731 245.423 139.699 245.334 139.66 245.256C139.543 245.025 139.686 245.121 140.01 245.417C141.336 246.671 145.651 251.431 146.854 251.754C146.854 251.754 144 248.595 141.811 244.761C141.577 244.362 141.356 243.951 141.141 243.538C140.206 241.725 139.49 239.821 139.335 238.071C138.795 232.217 137.528 223.732 137.151 222.896C137.554 223.681 143.871 235.787 150.013 240.026C150.298 240.226 150.584 240.406 150.87 240.567C151.332 240.824 151.793 241.037 152.248 241.191C152.248 241.191 151.747 240.618 150.994 239.731C150.974 239.705 150.955 239.686 150.935 239.66C148.758 237.106 144.586 232.114 143.91 230.641C144.221 230.994 149.161 236.72 150.46 237.248C150.46 237.248 141.356 223.501 141.154 220.31C141.057 218.892 141.303 217.53 141.594 216.457C141.595 216.455 141.595 216.453 141.596 216.451C141.635 216.321 141.668 216.2 141.707 216.084C141.708 216.082 141.708 216.079 141.709 216.077C141.753 215.933 141.798 215.795 141.841 215.664C141.841 215.662 141.841 215.661 141.843 215.659C142.142 214.791 142.415 214.25 142.415 214.25C142.415 214.25 142.616 214.713 142.948 215.473C142.949 215.474 142.95 215.475 142.95 215.477C142.981 215.546 143.013 215.615 143.046 215.684C143.137 215.896 143.24 216.122 143.344 216.366C143.41 216.501 143.468 216.643 143.533 216.79C143.533 216.79 143.534 216.79 143.534 216.792C143.604 216.938 143.675 217.092 143.746 217.251C143.746 217.251 143.746 217.253 143.746 217.254C145.345 220.759 147.964 226.214 149.29 227.218C149.199 226.993 147.438 222.779 145.956 218.707C145.956 218.706 145.955 218.705 145.955 218.704C145.91 218.585 145.865 218.463 145.821 218.342C145.821 218.342 145.82 218.342 145.82 218.34C145.755 218.161 145.696 217.98 145.631 217.807C145.631 217.805 145.631 217.804 145.629 217.802C145.449 217.298 145.282 216.799 145.12 216.321C145.12 216.319 145.12 216.317 145.118 216.315C145.079 216.212 145.046 216.109 145.015 216.008C145.015 216.008 145.015 216.007 145.015 216.006C144.294 213.825 143.806 211.992 143.923 211.29C143.929 211.232 143.949 211.168 143.962 211.097C143.962 211.097 143.962 211.095 143.962 211.094C144.02 210.889 144.104 210.634 144.226 210.335C144.226 210.334 144.227 210.333 144.227 210.332C144.708 209.11 145.684 207.193 146.749 205.205C146.749 205.205 146.749 205.203 146.751 205.202C148.745 201.504 151.051 197.582 151.051 197.582C151.051 197.582 152.227 194.925 153.91 193.092C153.723 197.956 153.677 203.462 153.742 209.419L153.742 209.42C153.748 209.462 153.748 209.508 153.748 209.551L153.748 209.56C153.748 209.928 153.755 210.297 153.761 210.665L153.761 210.679C153.767 211.316 153.781 211.959 153.794 212.602C153.8 212.949 153.806 213.297 153.813 213.65L153.813 213.662C153.826 214.623 153.852 215.603 153.871 216.59L153.871 216.592C153.878 216.868 153.891 217.15 153.898 217.432C153.898 217.63 153.905 217.822 153.91 218.02L153.91 218.025C154.363 235.042 155.544 254.757 156.948 273.755L156.949 273.757Z"
            fill="#CFE0E8" />
        <path
            d="M176.722 273.757L175.138 273.757C175.728 273.087 176.196 272.36 176.41 271.605C176.41 271.605 176.682 272.508 176.722 273.757Z"
            fill="#CFE0E8" />
        <path
            d="M173.773 273.757L159.595 273.757C158.16 253.925 156.83 234.367 155.829 219.268L155.829 219.265C155.816 219.05 155.803 218.841 155.79 218.632L155.79 218.625C154.945 206.005 154.341 196.595 154.107 192.888C155.972 190.99 158.428 190.212 160.606 195.011C164.876 204.415 166.403 207.099 163.764 212.322C163.946 212.219 166.792 210.533 166.799 208.642C166.799 208.642 169.971 218.799 166.331 222.331C166.331 222.331 170.88 220.266 170.535 216.149C170.724 216.824 173.558 227.78 166.76 233.138C166.76 233.138 170.516 232.713 171.666 228.919C171.627 229.266 170.971 234.843 167.566 237.133C167.566 237.133 170.926 237.474 173.298 230.726C173.298 230.726 175.351 239.23 168.495 243.823C168.82 243.681 173.974 241.391 174.26 239.165C174.26 239.165 177.288 246.859 172.271 249.214C172.271 249.214 175.351 248.975 175.683 248.036C176.001 247.09 174.051 255.897 169.905 258.103C170.211 257.988 174.812 256.206 176.079 251.902C176.157 251.62 176.229 251.33 176.281 251.028C176.281 251.028 176.3 251.374 176.307 251.96C176.371 254.688 176.287 262.619 173.551 265.302C173.551 265.302 175.728 264.169 176.424 261.674C176.424 261.674 177.854 268.058 173.773 273.758L173.773 273.757Z"
            fill="#CFE0E8" />
        <path
            d="M153.913 193.094C153.976 193.029 154.04 192.964 154.107 192.888C154.044 191.89 154.007 191.301 154.002 191.185C153.971 191.812 153.942 192.44 153.914 193.094L153.913 193.094Z"
            fill="#CFE0E8" />
        <g opacity="0.75">
            <path
                d="M168.099 276.144C168.099 276.144 163.102 277.019 159.965 278L134.101 278C115.433 271.446 99.2467 266.091 92.5906 263.909L92.5963 263.902C88.4501 262.526 76.9611 258.711 75.0561 258.19C73.1911 257.675 69.0001 256.608 67.4075 256.202C67.3227 256.183 67.2513 256.164 67.1798 256.144C66.9198 256.08 66.7703 256.041 66.7703 256.041C66.7703 256.041 66.8807 254.009 66.4978 253.738L93.3898 262.989C94.2213 262.281 95.3262 261.954 97.4903 259.746C101.123 256.048 102.677 254.491 102.677 254.06C102.677 253.63 105.601 256.421 107.524 255.964C107.524 255.964 102.67 261.696 100.474 262.725C101.519 262.262 105.887 260.216 108.635 256.955C108.635 256.955 109.552 256.286 111.235 256.499C111.235 256.499 108.389 258.454 107.226 259.824C106.075 261.175 105.88 261.696 105.367 262.017C105.587 261.947 108.447 260.943 111.852 257.438C111.852 257.438 114.511 259.02 118.351 258.724C118.351 258.724 113.427 259.927 110.639 263.683C110.75 263.608 118.305 258.567 122.634 259.13C122.634 259.13 118.052 261.175 115.804 263.349C116.194 263.137 122.953 259.515 125.533 260.011C125.533 260.011 122.53 260.68 120.957 263.677C121.132 263.472 124.882 259.297 129.321 261.889C129.321 261.889 134.735 264.565 136.034 264.565C136.034 264.565 130.218 266.038 127.449 269.743C127.449 269.743 126.8 271.911 129.074 269.743C129.074 269.743 133.421 266.122 136.489 265.073C136.489 265.073 138.419 265.64 139.121 265.478C139.121 265.478 133.223 269.445 132.786 270.707C132.878 270.644 138.756 266.604 140.369 266.656C140.369 266.656 134.518 270.732 133.871 271.698C133.977 271.628 140.757 267.137 142.104 267.035C142.104 267.035 147.193 269.338 149.467 269.447C149.467 269.447 141.783 272.393 140.858 273.788C140.96 273.742 147.906 270.518 149.467 270.946C149.467 270.946 145.134 272.984 143.567 274.644C143.664 274.586 149.855 270.837 151.254 270.895C152.665 270.946 157.103 273.841 159.378 273.629C159.378 273.629 154.634 275.012 152.84 276.729C153.204 276.555 159.638 273.538 163.063 274.163C166.579 274.805 167.014 275.719 168.099 276.144Z"
                fill="#0E5777" />
            <path
                d="M106.881 278C106.879 277.979 106.876 277.959 106.874 277.938C106.874 277.938 106.873 277.959 106.871 278L104.714 278C104.618 277.467 104.575 276.925 104.599 276.382C104.577 276.752 104.548 277.327 104.539 278L97.5414 278C97.3452 275.954 96.4784 273.459 93.8504 271.48C93.8504 271.48 95.884 274.769 96.4917 278L94.0971 278C92.8894 274.311 92.2607 273.084 92.1283 272.483C91.2834 268.682 91.4139 266.965 91.8168 265.652C91.8426 265.568 91.8683 265.472 91.9073 265.375C100.961 268.328 114.119 272.926 128.326 278L106.881 278Z"
                fill="#0E5777" />
        </g>
        <g opacity="0.75">
            <path
                d="M-3.78306 160.984C-4.13119 161.244 -3.60476 157.255 -5.12111 155.99C-5.12111 155.99 2.41817 156.466 4.56309 157.604C3.56393 157.047 -0.694173 154.777 -4.97507 154.52C-4.97507 154.52 -6.06431 154.184 -6.89367 152.717C-6.89367 152.717 -3.6162 153.826 -1.80948 153.94C-0.0292358 154.056 0.510356 153.907 1.0738 154.121C0.884482 153.991 -1.62759 152.307 -6.50185 151.667C-6.50185 151.667 -6.79524 148.615 -9.31936 145.729C-9.11111 145.895 -5.28838 148.938 -0.706472 148.934C-0.706472 148.934 -9.40587 145.884 -11.539 142.065C-11.539 142.065 -7.1585 144.506 -4.05377 145.012C-4.38764 144.857 -9.20041 142.616 -11.4992 140.517L-11.404 139.962C-10.4015 140.471 -8.80215 141.011 -6.85512 140.707C-7.02697 140.695 -9.41125 140.478 -11.2346 138.975L-9.88291 131.102C-8.60425 131.584 -7.19799 131.931 -5.79063 131.934C-5.79063 131.934 -3.64798 131.166 -6.76154 130.639C-6.76154 130.639 -8.03787 130.334 -9.66175 129.814L-9.19626 127.102C-8.74954 127.163 -8.39433 127.17 -8.18596 127.105C-8.18596 127.105 -8.5577 126.979 -9.13932 126.771L-8.92605 125.528C-8.52312 125.613 -8.20738 125.659 -8.02807 125.65C-8.02807 125.65 -8.35961 125.533 -8.89307 125.336L-6.39227 110.77C0.612829 134.039 7.60317 155.329 10.2091 163.192L10.2035 163.191C11.5521 167.313 15.2939 178.736 16.0018 180.568C16.8633 182.804 19.192 188.444 19.192 188.444C19.192 188.444 17.4764 189.567 17.4829 190.024L8.99273 163.101C7.92046 162.852 6.9956 162.172 3.91727 161.749C-1.24307 161.048 -3.43057 160.732 -3.78306 160.984Z"
                fill="#0E5777" />
            <path
                d="M11.8063 162.867C7.44096 149.802 0.743062 127.716 -5.62373 106.284L-1.52001 82.3808C-0.628446 81.5046 0.222864 80.4237 0.141035 79.5552C0.141035 79.5552 2.89049 83.6612 1.24596 86.402C1.04211 86.7451 0.776514 87.0651 0.417464 87.3498C0.386654 87.3773 0.355851 87.4048 0.318468 87.4312C0.318468 87.4312 0.380235 87.4148 0.477904 87.3862C0.778986 87.2816 1.45265 87.044 1.97226 86.7415C2.34684 86.5183 2.64767 86.2631 2.68115 85.9949C2.70612 85.7707 2.7279 86.218 2.66879 87.0238C2.52575 88.932 1.95413 92.8413 0.0360516 94.4907C0.407441 94.2467 3.80097 91.9107 3.62837 88.1546C3.62837 88.1546 5.90763 96.3445 3.95119 99.3317C3.95119 99.3317 5.40363 98.132 5.50695 96.1456C5.50695 96.1456 8.76159 103.106 3.25666 109.141C3.47084 108.968 7.00415 106.127 7.15056 103.62C7.15056 103.62 9.19441 107.305 6.73489 109.958C6.93028 109.822 8.55997 108.62 8.50943 107.997C8.50943 107.997 10.1961 114.376 4.84605 120.156C5.08767 119.975 9.29214 116.799 9.48591 113.177C9.52604 113.439 10.0777 117.678 10.7887 118.759C11.5196 119.877 16.0073 121.501 9.9025 130.872C10.1101 130.698 13.6871 127.682 13.6455 124.66C13.6455 124.66 19.0325 133.102 12.0357 138.449C12.0357 138.449 16.0069 137.015 16.8816 132.342C16.8816 132.342 17.9626 139.058 13.101 143.478C13.226 143.397 17.2353 140.778 17.9381 137.326C17.8814 137.696 16.9003 143.754 13.188 146.219C14.5061 145.374 18.809 142.469 18.6783 140.658C18.8078 141.091 20.8518 148.04 22.0056 148.884C22.0056 148.884 15.69 150.961 15.6017 157.695C15.6017 157.695 17.9326 151.992 21.2666 150.155C24.6082 148.318 24.6144 148.783 24.6144 148.783C24.1329 149.477 23.0177 150.519 22.1258 151.757C18.6988 156.32 17.921 157.93 17.4459 158.474C14.8594 161.405 13.3908 162.316 12.0855 162.777C12.0019 162.802 11.9097 162.838 11.8063 162.867Z"
                fill="#0E5777" />
        </g>
        <g opacity="0.75">
            <path
                d="M301.328 314.95L297.466 306.211L297.432 306.134L296.465 303.945L291.698 293.163C292.347 292.284 292.591 291.168 294.643 288.862C298.085 284.989 299.532 283.335 299.966 283.301C300.4 283.268 297.361 280.599 297.671 278.666C297.671 278.666 292.277 283.903 291.411 286.151C291.796 285.082 293.516 280.613 296.587 277.646C296.587 277.646 297.189 276.689 296.844 275.045C296.844 275.045 295.096 278.007 293.806 279.262C292.536 280.501 292.026 280.735 291.742 281.266C291.796 281.043 292.584 278.143 295.85 274.509C295.85 274.509 294.049 272.009 294.048 268.196C294.048 268.196 293.22 273.15 289.654 276.194C289.718 276.083 294.209 268.23 293.306 264.001C293.306 264.001 291.603 268.682 289.588 271.07C289.771 270.669 292.893 263.717 292.193 261.209C292.193 261.209 291.753 264.225 288.856 266.011C289.049 265.821 292.962 261.795 290.006 257.617C290.006 257.617 286.889 252.484 286.787 251.201C286.787 251.201 285.757 257.055 282.241 260.075C282.241 260.075 280.107 260.886 282.114 258.473C282.114 258.473 285.423 253.9 286.241 250.791C286.241 250.791 285.519 248.931 285.627 248.225C285.627 248.225 282.091 254.355 280.854 254.885C280.909 254.792 284.521 248.673 284.344 247.086C284.344 247.086 280.695 253.178 279.772 253.891C279.834 253.781 283.829 246.741 283.827 245.403C283.827 245.403 281.111 240.561 280.824 238.325C280.824 238.325 278.456 246.137 277.122 247.16C277.16 247.059 279.866 239.949 279.314 238.442C279.314 238.442 277.6 242.871 276.051 244.549L301.328 314.95Z"
                fill="#0E5777" />
            <path
                d="M276.049 244.552C276.049 244.552 276.049 244.55 276.051 244.549C276.149 244.357 279.393 238.04 279.227 236.674C279.066 235.286 275.804 231.132 275.84 228.87C275.84 228.87 274.817 233.66 273.227 235.564C273.373 235.191 275.911 228.607 275.016 225.276C274.094 221.857 273.14 221.498 272.628 220.46C272.628 220.46 271.752 229.348 270.574 230.942C270.574 230.942 271.539 223.183 271.523 222.319C271.523 222.319 270.393 227.247 269.659 228.271C269.659 228.271 271.046 221.067 271.009 219.94C270.972 218.814 268.702 216.892 268.68 215.874C268.653 214.857 267.104 222.074 266.242 222.89C266.242 222.89 268.073 215.115 266.222 210.903C264.402 206.753 262.094 200.562 262.039 199.857C262.06 200.616 262.364 213.731 258.664 217.727C258.664 217.727 260.494 209.197 260.363 207.536C260.363 207.536 259.097 213.551 258.403 214.411C258.403 214.411 259.421 201.802 258.372 199.573C257.33 197.344 255.263 195.942 255.263 195.942C255.263 195.942 256.232 205.493 255.449 207.219C255.449 207.219 254.226 195.861 253.14 194.493C252.056 193.125 243.216 187.841 243.216 187.841C243.216 187.841 241.433 186.475 239.611 185.854C250.176 203.373 264.975 235.196 276.176 260.337L276.176 260.338C276.691 261.496 277.199 262.638 277.699 263.766C283.779 277.484 288.617 288.801 290.833 294.022C290.835 294.02 290.837 294.019 290.838 294.018C291.792 296.237 293.685 300.65 295.289 304.44C295.375 304.64 295.459 304.839 295.543 305.035C295.647 305.281 295.749 305.523 295.85 305.761C296.875 308.193 297.705 310.189 297.96 310.88C298.315 311.837 298.876 313.434 299.404 314.95L276.049 244.552Z"
                fill="#0E5777" />
            <path
                d="M240.546 218.346C244.664 222.035 246.804 220.579 246.804 220.579C243.652 220.275 241.13 216.746 240.976 216.526C243.166 218.673 245.864 217.587 245.864 217.587C239.276 216.451 237.104 208.018 236.977 207.492C238.282 210.398 242.121 210.134 242.121 210.134C238.348 209.077 236.705 201.061 236.705 201.061C237.435 202.373 240.131 202.435 240.131 202.435C236.395 199.871 236.431 197.507 235.806 189.593C235.487 185.553 237.433 185.183 239.403 185.785C244.155 195.858 277.376 266.329 289.409 294.809C289.314 294.855 289.219 294.888 289.137 294.92C287.847 295.42 286.127 295.683 282.233 295.145C281.508 295.046 279.854 294.335 274.236 293.111C272.741 292.749 271.205 292.688 270.379 292.475C270.379 292.475 270.077 292.117 273.823 291.344C277.562 290.571 283.109 293.367 283.109 293.367C278.58 288.343 272.423 290.864 272.423 290.864C272.747 289.44 269.48 282.485 269.48 282.485C270.561 283.956 275.767 283.36 277.334 283.142C272.892 283.685 268.136 279.749 267.849 279.507C270.707 281.693 275.588 281.018 275.588 281.018C268.97 280.833 265.34 275.061 265.34 275.061C269.1 278.022 273.057 276.536 273.057 276.536C264.218 277.032 262.703 267.174 262.703 267.174C264.735 269.546 269.661 269.436 269.661 269.436C258.823 266.319 261.143 262.185 260.961 260.869C260.776 259.593 258.39 256.035 258.242 255.814C260.873 258.501 266.399 258.074 266.399 258.074C258.507 257.187 255.557 251.273 255.557 251.273C255.951 251.81 258.217 251.609 258.217 251.609C254.575 251.214 253.682 247.089 253.682 247.089C255.51 248.941 260.298 248.732 260.298 248.732C252.132 247.75 249.972 240.388 249.972 240.388C251.369 241.815 253.263 241.785 253.263 241.785C249.803 240.801 246.101 233.144 246.101 233.144C248.59 236.261 253.055 235.593 253.055 235.593C249.433 235.628 244.821 230.384 245.39 230.901C245.965 231.419 248.131 230.451 248.131 230.451C243.868 230.697 243.044 224.392 243.044 224.392C244.096 225.84 248.68 225.434 248.68 225.434C242.336 224.847 240.545 218.346 240.545 218.346L240.546 218.346Z"
                fill="#0E5777" />
            <path
                d="M239.611 185.854C239.544 185.833 239.477 185.813 239.403 185.787C239.075 185.089 238.879 184.678 238.84 184.597C239.095 185.01 239.349 185.422 239.611 185.854Z"
                fill="#0E5777" />
        </g>
    </g>
    <defs>
        <clipPath id="clip0_452_498">
            <rect width="278" height="381" fill="white" transform="translate(381) rotate(90)" />
        </clipPath>
    </defs>
</svg>
    